Pacifico.ufo
<glyph name="exclam" format="1">
  <advance width="1184"/>
  <unicode hex="0021"/>
  <outline>
    <contour>
      <point x="416" y="512" type="curve" smooth="yes"/>
      <point x="415" y="507"/>
      <point x="414" y="502"/>
      <point x="414" y="497" type="curve" smooth="yes"/>
      <point x="414" y="472"/>
      <point x="435" y="462"/>
      <point x="460" y="462" type="curve" smooth="yes"/>
      <point x="495" y="462"/>
      <point x="538" y="482"/>
      <point x="544" y="512" type="curve"/>
      <point x="778" y="1063"/>
      <point x="926" y="1351"/>
      <point x="992" y="1664" type="curve" smooth="yes"/>
      <point x="1000" y="1704"/>
      <point x="1003" y="1735"/>
      <point x="1003" y="1761" type="curve" smooth="yes"/>
      <point x="1003" y="1838"/>
      <point x="971" y="1856"/>
      <point x="928" y="1856" type="curve" smooth="yes"/>
      <point x="845" y="1856"/>
      <point x="744" y="1831"/>
      <point x="708" y="1704" type="curve" smooth="yes"/>
      <point x="630" y="1429"/>
      <point x="455" y="926"/>
    </contour>
    <contour>
      <point x="590" y="185" type="curve" smooth="yes"/>
      <point x="591" y="187"/>
      <point x="591" y="189"/>
      <point x="591" y="191" type="curve" smooth="yes"/>
      <point x="591" y="294"/>
      <point x="533" y="353"/>
      <point x="429" y="353" type="curve" smooth="yes"/>
      <point x="300" y="353"/>
      <point x="246" y="259"/>
      <point x="246" y="162" type="curve" smooth="yes"/>
      <point x="246" y="48"/>
      <point x="312" y="-2"/>
      <point x="410" y="-2" type="curve" smooth="yes"/>
      <point x="589" y="-2"/>
      <point x="582" y="170"/>
    </contour>
  </outline>
</glyph>
<glyph name="parenleft" format="1">
  <advance width="1377"/>
  <unicode hex="0028"/>
  <outline>
    <contour>
      <point x="704" y="-384" type="curve" smooth="yes"/>
      <point x="864" y="-384"/>
      <point x="1040" y="-312"/>
      <point x="1217" y="-129" type="curve" smooth="yes"/>
      <point x="1231" y="-115"/>
      <point x="1237" y="-94"/>
      <point x="1237" y="-71" type="curve" smooth="yes"/>
      <point x="1237" y="-12"/>
      <point x="1195" y="58"/>
      <point x="1143" y="58" type="curve" smooth="yes"/>
      <point x="1126" y="58"/>
      <point x="1105" y="51"/>
      <point x="1088" y="32" type="curve" smooth="yes"/>
      <point x="924" y="-150"/>
      <point x="837" y="-160"/>
      <point x="768" y="-160" type="curve" smooth="yes"/>
      <point x="672" y="-160"/>
      <point x="640" y="-27"/>
      <point x="640" y="160" type="curve" smooth="yes"/>
      <point x="640" y="635"/>
      <point x="922" y="1504"/>
      <point x="1248" y="1504" type="curve" smooth="yes"/>
      <point x="1376" y="1504"/>
      <point x="1440" y="1392"/>
      <point x="1504" y="1344" type="curve" smooth="yes"/>
      <point x="1510" y="1339"/>
      <point x="1517" y="1338"/>
      <point x="1525" y="1338" type="curve" smooth="yes"/>
      <point x="1576" y="1338"/>
      <point x="1665" y="1418"/>
      <point x="1665" y="1464" type="curve" smooth="yes"/>
      <point x="1665" y="1467"/>
      <point x="1664" y="1469"/>
      <point x="1664" y="1472" type="curve"/>
      <point x="1632" y="1600"/>
      <point x="1420" y="1728"/>
      <point x="1248" y="1728" type="curve" smooth="yes"/>
      <point x="780" y="1728"/>
      <point x="384" y="780"/>
      <point x="384" y="160" type="curve" smooth="yes"/>
      <point x="384" y="-155"/>
      <point x="482" y="-384"/>
    </contour>
  </outline>
</glyph>
<glyph name="parenright" format="1">
  <advance width="1279"/>
  <unicode hex="0029"/>
  <outline>
    <contour>
      <point x="766" y="1728" type="curve" smooth="yes"/>
      <point x="606" y="1728"/>
      <point x="430" y="1656"/>
      <point x="253" y="1473" type="curve" smooth="yes"/>
      <point x="239" y="1458"/>
      <point x="233" y="1438"/>
      <point x="233" y="1415" type="curve" smooth="yes"/>
      <point x="233" y="1356"/>
      <point x="275" y="1286"/>
      <point x="327" y="1286" type="curve" smooth="yes"/>
      <point x="344" y="1286"/>
      <point x="365" y="1293"/>
      <point x="382" y="1312" type="curve" smooth="yes"/>
      <point x="546" y="1494"/>
      <point x="660" y="1504"/>
      <point x="729" y="1504" type="curve" smooth="yes"/>
      <point x="847" y="1504"/>
      <point x="897" y="1312"/>
      <point x="897" y="1062" type="curve" smooth="yes"/>
      <point x="897" y="589"/>
      <point x="718" y="-95"/>
      <point x="478" y="-95" type="curve" smooth="yes"/>
      <point x="350" y="-95"/>
      <point x="286" y="-30"/>
      <point x="222" y="0" type="curve"/>
      <point x="216" y="5"/>
      <point x="209" y="6"/>
      <point x="201" y="6" type="curve" smooth="yes"/>
      <point x="150" y="6"/>
      <point x="61" y="-74"/>
      <point x="61" y="-120" type="curve" smooth="yes"/>
      <point x="61" y="-123"/>
      <point x="62" y="-125"/>
      <point x="62" y="-128" type="curve"/>
      <point x="94" y="-226"/>
      <point x="306" y="-319"/>
      <point x="478" y="-319" type="curve" smooth="yes"/>
      <point x="884" y="-319"/>
      <point x="1150" y="423"/>
      <point x="1150" y="1014" type="curve" smooth="yes"/>
      <point x="1150" y="1404"/>
      <point x="1034" y="1728"/>
    </contour>
  </outline>
</glyph>
<glyph name="plus" format="1">
  <advance width="1503"/>
  <unicode hex="002B"/>
  <outline>
    <contour>
      <point x="673" y="189" type="line" smooth="yes"/>
      <point x="673" y="103"/>
      <point x="720" y="60"/>
      <point x="768" y="60" type="curve" smooth="yes"/>
      <point x="816" y="60"/>
      <point x="865" y="104"/>
      <point x="865" y="193" type="curve" smooth="yes"/>
      <point x="865" y="416" type="line"/>
      <point x="1096" y="416" type="line" smooth="yes"/>
      <point x="1171" y="416"/>
      <point x="1215" y="473"/>
      <point x="1215" y="525" type="curve" smooth="yes"/>
      <point x="1215" y="568"/>
      <point x="1184" y="608"/>
      <point x="1115" y="608" type="curve" smooth="yes"/>
      <point x="865" y="608" type="line"/>
      <point x="865" y="855" type="line" smooth="yes"/>
      <point x="865" y="924"/>
      <point x="825" y="955"/>
      <point x="782" y="955" type="curve" smooth="yes"/>
      <point x="730" y="955"/>
      <point x="673" y="911"/>
      <point x="673" y="836" type="curve" smooth="yes"/>
      <point x="673" y="608" type="line"/>
      <point x="453" y="608" type="line" smooth="yes"/>
      <point x="364" y="608"/>
      <point x="320" y="559"/>
      <point x="320" y="511" type="curve" smooth="yes"/>
      <point x="320" y="463"/>
      <point x="363" y="416"/>
      <point x="449" y="416" type="curve" smooth="yes"/>
      <point x="673" y="416" type="line"/>
    </contour>
  </outline>
</glyph>
<glyph name="hyphen" format="1">
  <advance width="768"/>
  <unicode hex="002D"/>
  <outline>
    <contour>
      <point x="608" y="704" type="curve"/>
      <point x="160" y="704" type="line" smooth="yes"/>
      <point x="74" y="704"/>
      <point x="63" y="655"/>
      <point x="63" y="621" type="curve" smooth="yes"/>
      <point x="63" y="581"/>
      <point x="75" y="512"/>
      <point x="160" y="512" type="curve" smooth="yes"/>
      <point x="575" y="512" type="line" smooth="yes"/>
      <point x="687" y="512"/>
      <point x="703" y="576"/>
      <point x="703" y="628" type="curve" smooth="yes"/>
      <point x="703" y="691"/>
      <point x="644" y="704"/>
    </contour>
  </outline>
</glyph>
<glyph name="period" format="1">
  <advance width="704"/>
  <unicode hex="002E"/>
  <outline>
    <contour>
      <point x="672" y="191" type="curve" smooth="yes"/>
      <point x="672" y="294"/>
      <point x="613" y="353"/>
      <point x="503" y="353" type="curve" smooth="yes"/>
      <point x="374" y="353"/>
      <point x="320" y="259"/>
      <point x="320" y="162" type="curve" smooth="yes"/>
      <point x="320" y="48"/>
      <point x="386" y="0"/>
      <point x="484" y="0" type="curve" smooth="yes"/>
      <point x="669" y="0"/>
      <point x="672" y="174"/>
    </contour>
  </outline>
</glyph>
<glyph name="zero" format="1">
  <advance width="863"/>
  <unicode hex="0030"/>
  <outline>
    <contour>
      <point x="345" y="0" type="curve" smooth="yes"/>
      <point x="629" y="0"/>
      <point x="809" y="367"/>
      <point x="809" y="664" type="curve" smooth="yes"/>
      <point x="809" y="877"/>
      <point x="712" y="1058"/>
      <point x="490" y="1058" type="curve" smooth="yes"/>
      <point x="201" y="1058"/>
      <point x="39" y="705"/>
      <point x="39" y="412" type="curve" smooth="yes"/>
      <point x="39" y="191"/>
      <point x="139" y="0"/>
    </contour>
    <contour>
      <point x="361" y="182" type="curve" smooth="yes"/>
      <point x="310" y="182"/>
      <point x="285" y="267"/>
      <point x="285" y="378" type="curve" smooth="yes"/>
      <point x="285" y="561"/>
      <point x="366" y="877"/>
      <point x="486" y="877" type="curve" smooth="yes"/>
      <point x="544" y="877"/>
      <point x="569" y="796"/>
      <point x="569" y="691" type="curve" smooth="yes"/>
      <point x="569" y="504"/>
      <point x="469" y="182"/>
    </contour>
  </outline>
</glyph>
<glyph name="two" format="1">
  <advance width="927"/>
  <unicode hex="0032"/>
  <outline>
    <contour>
      <point x="753" y="1" type="curve" smooth="yes"/>
      <point x="845" y="1"/>
      <point x="879" y="73"/>
      <point x="891" y="126" type="curve" smooth="yes"/>
      <point x="902" y="174"/>
      <point x="907" y="209"/>
      <point x="907" y="233" type="curve" smooth="yes"/>
      <point x="907" y="270"/>
      <point x="895" y="283"/>
      <point x="876" y="283" type="curve" smooth="yes"/>
      <point x="862" y="283"/>
      <point x="818" y="183"/>
      <point x="788" y="183" type="curve" smooth="yes"/>
      <point x="730" y="183"/>
      <point x="682" y="198"/>
      <point x="637" y="221" type="curve"/>
      <point x="774" y="385"/>
      <point x="853" y="599"/>
      <point x="853" y="716" type="curve" smooth="yes"/>
      <point x="853" y="1034"/>
      <point x="556" y="1077"/>
      <point x="470" y="1077" type="curve" smooth="yes"/>
      <point x="248" y="1077"/>
      <point x="68" y="918"/>
      <point x="68" y="768" type="curve" smooth="yes"/>
      <point x="68" y="712"/>
      <point x="93" y="658"/>
      <point x="148" y="613" type="curve"/>
      <point x="156" y="613"/>
      <point x="166" y="613"/>
      <point x="177" y="603" type="curve"/>
      <point x="273" y="603"/>
      <point x="410" y="649"/>
      <point x="410" y="680" type="curve" smooth="yes"/>
      <point x="410" y="684"/>
      <point x="409" y="687"/>
      <point x="408" y="690" type="curve"/>
      <point x="324" y="717"/>
      <point x="288" y="742"/>
      <point x="288" y="766" type="curve" smooth="yes"/>
      <point x="288" y="854"/>
      <point x="364" y="914"/>
      <point x="448" y="914" type="curve" smooth="yes"/>
      <point x="517" y="914"/>
      <point x="601" y="873"/>
      <point x="601" y="677" type="curve" smooth="yes"/>
      <point x="601" y="563"/>
      <point x="535" y="434"/>
      <point x="455" y="338" type="curve"/>
      <point x="387" y="381"/>
      <point x="309" y="416"/>
      <point x="204" y="416" type="curve" smooth="yes"/>
      <point x="66" y="416"/>
      <point x="10" y="308"/>
      <point x="10" y="221" type="curve" smooth="yes"/>
      <point x="10" y="108"/>
      <point x="118" y="1"/>
      <point x="257" y="1" type="curve"/>
      <point x="354" y="7"/>
      <point x="441" y="47"/>
      <point x="518" y="105" type="curve"/>
      <point x="595" y="50"/>
      <point x="676" y="1"/>
    </contour>
    <contour>
      <point x="244" y="191" type="curve" smooth="yes"/>
      <point x="211" y="191"/>
      <point x="179" y="215"/>
      <point x="179" y="238" type="curve" smooth="yes"/>
      <point x="179" y="254"/>
      <point x="201" y="266"/>
      <point x="261" y="266" type="curve" smooth="yes"/>
      <point x="284" y="266"/>
      <point x="313" y="253"/>
      <point x="345" y="233" type="curve"/>
      <point x="307" y="206"/>
      <point x="272" y="191"/>
    </contour>
  </outline>
</glyph>
<glyph name="five" format="1">
  <advance width="831"/>
  <unicode hex="0035"/>
  <outline>
    <contour>
      <point x="478" y="777" type="curve"/>
      <point x="725" y="828"/>
      <point x="712" y="904"/>
      <point x="712" y="901" type="curve" smooth="yes"/>
      <point x="712" y="978"/>
      <point x="691" y="1030"/>
      <point x="642" y="1030" type="curve" smooth="yes"/>
      <point x="614" y="1030"/>
      <point x="651" y="1018"/>
      <point x="531" y="992" type="curve" smooth="yes"/>
      <point x="518" y="989"/>
      <point x="505" y="989"/>
      <point x="492" y="989" type="curve" smooth="yes"/>
      <point x="406" y="989"/>
      <point x="326" y="1024"/>
      <point x="249" y="1024" type="curve" smooth="yes"/>
      <point x="225" y="1024"/>
      <point x="158" y="1045"/>
      <point x="158" y="840" type="curve" smooth="yes"/>
      <point x="158" y="810"/>
      <point x="160" y="776"/>
      <point x="163" y="736" type="curve"/>
      <point x="167" y="487"/>
      <point x="176" y="512"/>
      <point x="290" y="493" type="curve"/>
      <point x="446" y="480"/>
      <point x="520" y="439"/>
      <point x="520" y="308" type="curve" smooth="yes"/>
      <point x="520" y="202"/>
      <point x="418" y="123"/>
      <point x="329" y="123" type="curve" smooth="yes"/>
      <point x="280" y="123"/>
      <point x="239" y="159"/>
      <point x="239" y="249" type="curve" smooth="yes"/>
      <point x="239" y="313"/>
      <point x="349" y="315"/>
      <point x="349" y="335" type="curve" smooth="yes"/>
      <point x="349" y="363"/>
      <point x="246" y="396"/>
      <point x="184" y="396" type="curve" smooth="yes"/>
      <point x="111" y="396"/>
      <point x="46" y="364"/>
      <point x="46" y="263" type="curve" smooth="yes"/>
      <point x="46" y="97"/>
      <point x="147" y="-16"/>
      <point x="396" y="-16" type="curve" smooth="yes"/>
      <point x="631" y="-16"/>
      <point x="799" y="146"/>
      <point x="799" y="297" type="curve" smooth="yes"/>
      <point x="799" y="417"/>
      <point x="783" y="645"/>
      <point x="399" y="645" type="curve" smooth="yes"/>
      <point x="364" y="645"/>
      <point x="327" y="643"/>
      <point x="287" y="639" type="curve"/>
      <point x="270" y="725"/>
      <point x="259" y="805"/>
      <point x="259" y="805" type="curve"/>
      <point x="269" y="806"/>
      <point x="279" y="807"/>
      <point x="287" y="807" type="curve" smooth="yes"/>
      <point x="334" y="807"/>
      <point x="367" y="788"/>
    </contour>
  </outline>
</glyph>
<glyph name="seven" format="1">
  <advance width="608"/>
  <unicode hex="0037"/>
  <outline>
    <contour>
      <point x="271" y="-56" type="curve" smooth="yes"/>
      <point x="325" y="-56"/>
      <point x="418" y="-49"/>
      <point x="440" y="26" type="curve" smooth="yes"/>
      <point x="534" y="340"/>
      <point x="584" y="565"/>
      <point x="760" y="804" type="curve"/>
      <point x="789" y="824"/>
      <point x="878" y="880"/>
      <point x="881" y="897" type="curve" smooth="yes"/>
      <point x="885" y="918"/>
      <point x="887" y="938"/>
      <point x="887" y="955" type="curve" smooth="yes"/>
      <point x="887" y="1011"/>
      <point x="867" y="1046"/>
      <point x="821" y="1046" type="curve" smooth="yes"/>
      <point x="812" y="1046"/>
      <point x="802" y="1036"/>
      <point x="695" y="1036" type="curve" smooth="yes"/>
      <point x="676" y="1036"/>
      <point x="654" y="1036"/>
      <point x="628" y="1037" type="curve" smooth="yes"/>
      <point x="515" y="1039"/>
      <point x="422" y="1112"/>
      <point x="324" y="1112" type="curve" smooth="yes"/>
      <point x="238" y="1112"/>
      <point x="116" y="1069"/>
      <point x="77" y="837" type="curve" smooth="yes"/>
      <point x="74" y="821"/>
      <point x="73" y="805"/>
      <point x="73" y="792" type="curve" smooth="yes"/>
      <point x="73" y="760"/>
      <point x="81" y="739"/>
      <point x="102" y="739" type="curve" smooth="yes"/>
      <point x="125" y="739"/>
      <point x="151" y="768"/>
      <point x="192" y="832" type="curve" smooth="yes"/>
      <point x="229" y="890"/>
      <point x="246" y="892"/>
      <point x="332" y="892" type="curve" smooth="yes"/>
      <point x="397" y="892"/>
      <point x="416" y="864"/>
      <point x="544" y="832" type="curve"/>
      <point x="346" y="561"/>
      <point x="192" y="311"/>
      <point x="148" y="65" type="curve" smooth="yes"/>
      <point x="147" y="59"/>
      <point x="147" y="54"/>
      <point x="147" y="49" type="curve" smooth="yes"/>
      <point x="147" y="-42"/>
      <point x="251" y="-56"/>
    </contour>
  </outline>
</glyph>
<glyph name="eight" format="1">
  <advance width="801"/>
  <unicode hex="0038"/>
  <outline>
    <contour>
      <point x="148" y="827" type="curve" smooth="yes"/>
      <point x="148" y="726"/>
      <point x="196" y="621"/>
      <point x="304" y="552" type="curve"/>
      <point x="168" y="468"/>
      <point x="32" y="364"/>
      <point x="32" y="162" type="curve" smooth="yes"/>
      <point x="32" y="-75"/>
      <point x="230" y="-128"/>
      <point x="384" y="-128" type="curve" smooth="yes"/>
      <point x="602" y="-128"/>
      <point x="762" y="0"/>
      <point x="762" y="186" type="curve" smooth="yes"/>
      <point x="762" y="330"/>
      <point x="651" y="428"/>
      <point x="534" y="516" type="curve"/>
      <point x="690" y="594"/>
      <point x="833" y="696"/>
      <point x="833" y="927" type="curve" smooth="yes"/>
      <point x="833" y="1055"/>
      <point x="696" y="1119"/>
      <point x="541" y="1119" type="curve" smooth="yes"/>
      <point x="356" y="1119"/>
      <point x="148" y="1023"/>
    </contour>
    <contour>
      <point x="499" y="996" type="curve" smooth="yes"/>
      <point x="559" y="996"/>
      <point x="617" y="964"/>
      <point x="617" y="898" type="curve" smooth="yes"/>
      <point x="617" y="820"/>
      <point x="530" y="696"/>
      <point x="440" y="639" type="curve"/>
      <point x="385" y="699"/>
      <point x="355" y="789"/>
      <point x="355" y="858" type="curve" smooth="yes"/>
      <point x="355" y="943"/>
      <point x="421" y="996"/>
    </contour>
    <contour>
      <point x="506" y="237" type="curve" smooth="yes"/>
      <point x="506" y="113"/>
      <point x="423" y="51"/>
      <point x="342" y="51" type="curve" smooth="yes"/>
      <point x="297" y="51"/>
      <point x="240" y="96"/>
      <point x="240" y="181" type="curve" smooth="yes"/>
      <point x="240" y="291"/>
      <point x="317" y="351"/>
      <point x="422" y="399" type="curve"/>
      <point x="469" y="353"/>
      <point x="506" y="304"/>
    </contour>
  </outline>
</glyph>
<glyph name="nine" format="1">
  <advance width="927"/>
  <unicode hex="0039"/>
  <outline>
    <contour>
      <point x="464" y="511" type="curve"/>
      <point x="445" y="484"/>
      <point x="421" y="471"/>
      <point x="398" y="471" type="curve" smooth="yes"/>
      <point x="344" y="471"/>
      <point x="292" y="526"/>
      <point x="292" y="622" type="curve" smooth="yes"/>
      <point x="292" y="747"/>
      <point x="367" y="897"/>
      <point x="477" y="897" type="curve" smooth="yes"/>
      <point x="583" y="897"/>
      <point x="615" y="779"/>
      <point x="615" y="648" type="curve" smooth="yes"/>
      <point x="615" y="315"/>
      <point x="436" y="121"/>
      <point x="168" y="-14" type="curve"/>
      <point x="126" y="-42"/>
      <point x="108" y="-77"/>
      <point x="108" y="-107" type="curve" smooth="yes"/>
      <point x="108" y="-144"/>
      <point x="144" y="-174"/>
      <point x="203" y="-174" type="curve" smooth="yes"/>
      <point x="225" y="-174"/>
      <point x="249" y="-165"/>
      <point x="276" y="-153" type="curve" smooth="yes"/>
      <point x="601" y="-9"/>
      <point x="867" y="250"/>
      <point x="867" y="680" type="curve" smooth="yes"/>
      <point x="867" y="970"/>
      <point x="655" y="1088"/>
      <point x="492" y="1088" type="curve" smooth="yes"/>
      <point x="208" y="1088"/>
      <point x="53" y="838"/>
      <point x="53" y="630" type="curve" smooth="yes"/>
      <point x="53" y="478"/>
      <point x="131" y="309"/>
      <point x="308" y="309" type="curve" smooth="yes"/>
      <point x="420" y="309"/>
      <point x="501" y="426"/>
      <point x="501" y="511" type="curve" smooth="yes"/>
      <point x="501" y="524"/>
      <point x="501" y="532"/>
      <point x="491" y="532" type="curve" smooth="yes"/>
      <point x="485" y="532"/>
      <point x="477" y="525"/>
    </contour>
  </outline>
</glyph>
<glyph name="colon" format="1">
  <advance width="704"/>
  <unicode hex="003A"/>
  <outline>
    <contour>
      <point x="732" y="863" type="curve" smooth="yes"/>
      <point x="732" y="966"/>
      <point x="673" y="1025"/>
      <point x="563" y="1025" type="curve" smooth="yes"/>
      <point x="434" y="1025"/>
      <point x="380" y="931"/>
      <point x="380" y="834" type="curve" smooth="yes"/>
      <point x="380" y="720"/>
      <point x="446" y="672"/>
      <point x="544" y="672" type="curve" smooth="yes"/>
      <point x="729" y="672"/>
      <point x="732" y="846"/>
    </contour>
    <contour>
      <point x="672" y="191" type="curve" smooth="yes"/>
      <point x="672" y="294"/>
      <point x="613" y="353"/>
      <point x="503" y="353" type="curve" smooth="yes"/>
      <point x="374" y="353"/>
      <point x="320" y="259"/>
      <point x="320" y="162" type="curve" smooth="yes"/>
      <point x="320" y="48"/>
      <point x="386" y="0"/>
      <point x="484" y="0" type="curve" smooth="yes"/>
      <point x="669" y="0"/>
      <point x="672" y="174"/>
    </contour>
  </outline>
</glyph>
<glyph name="less" format="1">
  <advance width="1184"/>
  <unicode hex="003C"/>
  <outline>
    <contour>
      <point x="493" y="275" type="curve" smooth="yes"/>
      <point x="650" y="222"/>
      <point x="821" y="126"/>
      <point x="936" y="126" type="curve" smooth="yes"/>
      <point x="1000" y="126"/>
      <point x="1039" y="159"/>
      <point x="1039" y="205" type="curve" smooth="yes"/>
      <point x="1039" y="292"/>
      <point x="952" y="357"/>
      <point x="909" y="373" type="curve" smooth="yes"/>
      <point x="254" y="613" type="line"/>
      <point x="1056" y="872" type="line" smooth="yes"/>
      <point x="1104" y="887"/>
      <point x="1134" y="910"/>
      <point x="1134" y="962" type="curve" smooth="yes"/>
      <point x="1134" y="967"/>
      <point x="1132" y="1125"/>
      <point x="1024" y="1125" type="curve" smooth="yes"/>
      <point x="1011" y="1125"/>
      <point x="996" y="1123"/>
      <point x="980" y="1118" type="curve" smooth="yes"/>
      <point x="833" y="1072"/>
      <point x="363" y="866"/>
      <point x="356" y="863" type="curve" smooth="yes"/>
      <point x="207" y="794"/>
      <point x="58" y="780"/>
      <point x="58" y="626" type="curve" smooth="yes"/>
      <point x="58" y="467"/>
      <point x="146" y="393"/>
    </contour>
  </outline>
</glyph>
<glyph name="equal" format="1">
  <advance width="1707"/>
  <unicode hex="003D"/>
  <outline>
    <contour>
      <point x="483" y="382" type="curve"/>
      <point x="1375" y="382" type="line" smooth="yes"/>
      <point x="1565" y="382"/>
      <point x="1621" y="453"/>
      <point x="1621" y="545" type="curve" smooth="yes"/>
      <point x="1621" y="577"/>
      <point x="1606" y="607"/>
      <point x="1539" y="607" type="curve" smooth="yes"/>
      <point x="1262" y="607"/>
      <point x="763" y="606"/>
      <point x="591" y="606" type="curve" smooth="yes"/>
      <point x="462" y="606"/>
      <point x="349" y="592"/>
      <point x="349" y="490" type="curve" smooth="yes"/>
      <point x="349" y="413"/>
      <point x="418" y="382"/>
    </contour>
  </outline>
</glyph>
<glyph name="greater" format="1">
  <advance width="1184"/>
  <unicode hex="003E"/>
  <outline>
    <contour>
      <point x="709" y="255" type="curve"/>
      <point x="1048" y="379"/>
      <point x="1134" y="457"/>
      <point x="1134" y="626" type="curve" smooth="yes"/>
      <point x="1134" y="780"/>
      <point x="985" y="794"/>
      <point x="836" y="863" type="curve" smooth="yes"/>
      <point x="829" y="866"/>
      <point x="423" y="1040"/>
      <point x="292" y="1078" type="curve" smooth="yes"/>
      <point x="276" y="1083"/>
      <point x="261" y="1085"/>
      <point x="248" y="1085" type="curve" smooth="yes"/>
      <point x="140" y="1085"/>
      <point x="138" y="927"/>
      <point x="138" y="922" type="curve" smooth="yes"/>
      <point x="138" y="870"/>
      <point x="168" y="846"/>
      <point x="216" y="832" type="curve" smooth="yes"/>
      <point x="938" y="613" type="line"/>
      <point x="253" y="353" type="line"/>
      <point x="221" y="337"/>
      <point x="163" y="272"/>
      <point x="163" y="185" type="curve" smooth="yes"/>
      <point x="163" y="139"/>
      <point x="202" y="106"/>
      <point x="266" y="106" type="curve" smooth="yes"/>
      <point x="381" y="106"/>
      <point x="552" y="202"/>
    </contour>
  </outline>
</glyph>
<glyph name="D" format="1">
  <advance width="1430"/>
  <unicode hex="0044"/>
  <outline>
    <contour>
      <point x="579" y="1736" type="curve" smooth="yes"/>
      <point x="228" y="1736"/>
      <point x="-93" y="1587"/>
      <point x="-93" y="1195" type="curve" smooth="yes"/>
      <point x="-93" y="1128"/>
      <point x="-77" y="1094"/>
      <point x="-49" y="1094" type="curve" smooth="yes"/>
      <point x="-7" y="1094"/>
      <point x="53" y="1180"/>
      <point x="150" y="1330" type="curve"/>
      <point x="221" y="1451"/>
      <point x="450" y="1502"/>
      <point x="674" y="1502" type="curve" smooth="yes"/>
      <point x="982" y="1502"/>
      <point x="1194" y="1318"/>
      <point x="1194" y="1009" type="curve" smooth="yes"/>
      <point x="1194" y="635"/>
      <point x="911" y="128"/>
      <point x="510" y="128" type="curve" smooth="yes"/>
      <point x="421" y="128"/>
      <point x="414" y="159"/>
      <point x="414" y="258" type="curve" smooth="yes"/>
      <point x="414" y="351"/>
      <point x="426" y="443"/>
      <point x="463" y="688" type="curve" smooth="yes"/>
      <point x="496" y="909"/>
      <point x="530" y="1162"/>
      <point x="653" y="1326" type="curve"/>
      <point x="621" y="1380"/>
      <point x="581" y="1408"/>
      <point x="531" y="1408" type="curve" smooth="yes"/>
      <point x="493" y="1408"/>
      <point x="450" y="1392"/>
      <point x="402" y="1359" type="curve"/>
      <point x="186" y="1042"/>
      <point x="154" y="536"/>
      <point x="154" y="93" type="curve" smooth="yes"/>
      <point x="154" y="48"/>
      <point x="158" y="36"/>
      <point x="192" y="24" type="curve"/>
      <point x="276" y="-18"/>
      <point x="416" y="-60"/>
      <point x="542" y="-60" type="curve" smooth="yes"/>
      <point x="1097" y="-60"/>
      <point x="1438" y="524"/>
      <point x="1438" y="1028" type="curve" smooth="yes"/>
      <point x="1438" y="1395"/>
      <point x="1232" y="1736"/>
    </contour>
  </outline>
</glyph>
<glyph name="E" format="1">
  <advance width="1448"/>
  <unicode hex="0045"/>
  <outline>
    <contour>
      <point x="1408" y="477" type="line"/>
      <point x="1303" y="306"/>
      <point x="915" y="128"/>
      <point x="631" y="128" type="curve" smooth="yes"/>
      <point x="474" y="128"/>
      <point x="352" y="191"/>
      <point x="352" y="390" type="curve" smooth="yes"/>
      <point x="352" y="600"/>
      <point x="571" y="710"/>
      <point x="783" y="710" type="curve" smooth="yes"/>
      <point x="829" y="710"/>
      <point x="887" y="704"/>
      <point x="921" y="704" type="curve" smooth="yes"/>
      <point x="1002" y="704"/>
      <point x="1024" y="736"/>
      <point x="1024" y="811" type="curve" smooth="yes"/>
      <point x="1024" y="838"/>
      <point x="1021" y="867"/>
      <point x="1018" y="895" type="curve"/>
      <point x="978" y="1073"/>
      <point x="522" y="979"/>
      <point x="522" y="1266" type="curve" smooth="yes"/>
      <point x="522" y="1443"/>
      <point x="680" y="1501"/>
      <point x="859" y="1501" type="curve" smooth="yes"/>
      <point x="1051" y="1501"/>
      <point x="1268" y="1434"/>
      <point x="1341" y="1376" type="curve"/>
      <point x="1308" y="1273"/>
      <point x="1295" y="1205"/>
      <point x="1295" y="1161" type="curve" smooth="yes"/>
      <point x="1295" y="1135"/>
      <point x="1303" y="1124"/>
      <point x="1316" y="1124" type="curve" smooth="yes"/>
      <point x="1384" y="1124"/>
      <point x="1533" y="1221"/>
      <point x="1533" y="1318" type="curve" smooth="yes"/>
      <point x="1533" y="1589"/>
      <point x="1225" y="1726"/>
      <point x="912" y="1726" type="curve" smooth="yes"/>
      <point x="589" y="1726"/>
      <point x="260" y="1579"/>
      <point x="260" y="1280" type="curve" smooth="yes"/>
      <point x="260" y="1067"/>
      <point x="403" y="887"/>
      <point x="696" y="887" type="curve"/>
      <point x="252" y="877"/>
      <point x="64" y="633"/>
      <point x="64" y="364" type="curve" smooth="yes"/>
      <point x="64" y="48"/>
      <point x="323" y="-96"/>
      <point x="637" y="-96" type="curve" smooth="yes"/>
      <point x="922" y="-96"/>
      <point x="1260" y="22"/>
      <point x="1477" y="250" type="curve"/>
    </contour>
  </outline>
</glyph>
<glyph name="I" format="1">
  <advance width="983"/>
  <unicode hex="0049"/>
  <outline>
    <contour>
      <point x="359" y="1404" type="curve" smooth="yes"/>
      <point x="491" y="1452"/>
      <point x="509" y="1468"/>
      <point x="659" y="1484" type="curve"/>
      <point x="566" y="1230"/>
      <point x="439" y="686"/>
      <point x="314" y="163" type="curve"/>
      <point x="210" y="156"/>
      <point x="23" y="117"/>
      <point x="18" y="71" type="curve" smooth="yes"/>
      <point x="11" y="5"/>
      <point x="-50" y="-18"/>
      <point x="-50" y="-27" type="curve" smooth="yes"/>
      <point x="-50" y="-37"/>
      <point x="676" y="-30"/>
      <point x="786" y="-32" type="curve"/>
      <point x="834" y="-5"/>
      <point x="858" y="23"/>
      <point x="858" y="50" type="curve" smooth="yes"/>
      <point x="858" y="134"/>
      <point x="629" y="158"/>
      <point x="604" y="157" type="curve"/>
      <point x="798" y="883"/>
      <point x="778" y="923"/>
      <point x="929" y="1504" type="curve"/>
      <point x="951" y="1502"/>
      <point x="974" y="1501"/>
      <point x="995" y="1501" type="curve" smooth="yes"/>
      <point x="1190" y="1501"/>
      <point x="1204" y="1560"/>
      <point x="1204" y="1618" type="curve" smooth="yes"/>
      <point x="1204" y="1675"/>
      <point x="1188" y="1730"/>
      <point x="925" y="1730" type="curve" smooth="yes"/>
      <point x="465" y="1730"/>
      <point x="347" y="1582"/>
      <point x="347" y="1533" type="curve" smooth="yes"/>
      <point x="347" y="1454"/>
      <point x="351" y="1402"/>
      <point x="355" y="1402" type="curve" smooth="yes"/>
      <point x="356" y="1402"/>
      <point x="357" y="1403"/>
    </contour>
  </outline>
</glyph>
<glyph name="J" format="1">
  <advance width="1362"/>
  <unicode hex="004A"/>
  <outline>
    <contour>
      <point x="-104" y="-256" type="curve" smooth="yes"/>
      <point x="-104" y="-588"/>
      <point x="57" y="-760"/>
      <point x="267" y="-760" type="curve" smooth="yes"/>
      <point x="570" y="-760"/>
      <point x="975" y="-404"/>
      <point x="1151" y="337" type="curve"/>
      <point x="1269" y="287"/>
      <point x="1373" y="257"/>
      <point x="1447" y="256" type="curve" smooth="yes"/>
      <point x="1465" y="256"/>
      <point x="1480" y="259"/>
      <point x="1491" y="265" type="curve" smooth="yes"/>
      <point x="1507" y="273"/>
      <point x="1560" y="299"/>
      <point x="1560" y="326" type="curve" smooth="yes"/>
      <point x="1560" y="353"/>
      <point x="1480" y="396"/>
      <point x="1445" y="416" type="curve" smooth="yes"/>
      <point x="1360" y="464"/>
      <point x="1276" y="512"/>
      <point x="1195" y="562" type="curve"/>
      <point x="1224" y="740"/>
      <point x="1240" y="936"/>
      <point x="1240" y="1152" type="curve" smooth="yes"/>
      <point x="1240" y="1753"/>
      <point x="1014" y="1987"/>
      <point x="775" y="1987" type="curve" smooth="yes"/>
      <point x="504" y="1987"/>
      <point x="216" y="1687"/>
      <point x="216" y="1280" type="curve" smooth="yes"/>
      <point x="216" y="1068"/>
      <point x="395" y="844"/>
      <point x="622" y="659" type="curve"/>
      <point x="182" y="524"/>
      <point x="-104" y="103"/>
    </contour>
    <contour>
      <point x="152" y="-320" type="curve" smooth="yes"/>
      <point x="152" y="-62"/>
      <point x="458" y="408"/>
      <point x="866" y="487" type="curve"/>
      <point x="903" y="464" type="line"/>
      <point x="763" y="-224"/>
      <point x="472" y="-527"/>
      <point x="296" y="-527" type="curve" smooth="yes"/>
      <point x="210" y="-527"/>
      <point x="152" y="-455"/>
    </contour>
    <contour>
      <point x="472" y="1344" type="curve" smooth="yes"/>
      <point x="472" y="1539"/>
      <point x="650" y="1772"/>
      <point x="796" y="1772" type="curve" smooth="yes"/>
      <point x="898" y="1772"/>
      <point x="984" y="1659"/>
      <point x="984" y="1344" type="curve" smooth="yes"/>
      <point x="984" y="1115"/>
      <point x="970" y="909"/>
      <point x="947" y="725" type="curve"/>
      <point x="668" y="923"/>
      <point x="472" y="1131"/>
    </contour>
  </outline>
</glyph>
<glyph name="K" format="1">
  <advance width="1920"/>
  <unicode hex="004B"/>
  <outline>
    <contour>
      <point x="1007" y="1497" type="curve" smooth="yes"/>
      <point x="1011" y="1535"/>
      <point x="1011" y="1578"/>
      <point x="1011" y="1632" type="curve" smooth="yes"/>
      <point x="1011" y="1674"/>
      <point x="989" y="1728"/>
      <point x="885" y="1728" type="curve" smooth="yes"/>
      <point x="616" y="1728"/>
      <point x="35" y="1663"/>
      <point x="-27" y="1123" type="curve"/>
      <point x="-27" y="1123"/>
      <point x="-28" y="1119"/>
      <point x="-28" y="1111" type="curve" smooth="yes"/>
      <point x="-28" y="1084"/>
      <point x="-12" y="1024"/>
      <point x="136" y="1024" type="curve" smooth="yes"/>
      <point x="250" y="1024"/>
      <point x="260" y="1083"/>
      <point x="260" y="1097" type="curve" smooth="yes"/>
      <point x="260" y="1295"/>
      <point x="410" y="1568"/>
      <point x="761" y="1568" type="curve"/>
      <point x="749" y="1485" type="line"/>
      <point x="685" y="862"/>
      <point x="540" y="160"/>
      <point x="179" y="160" type="curve" smooth="yes"/>
      <point x="135" y="160"/>
      <point x="87" y="174"/>
      <point x="40" y="195" type="curve" smooth="yes"/>
      <point x="37" y="196"/>
      <point x="34" y="196"/>
      <point x="31" y="196" type="curve" smooth="yes"/>
      <point x="-6" y="196"/>
      <point x="-47" y="149"/>
      <point x="-57" y="131" type="curve" smooth="yes"/>
      <point x="-74" y="101"/>
      <point x="-96" y="72"/>
      <point x="-96" y="36" type="curve" smooth="yes"/>
      <point x="-96" y="-38"/>
      <point x="111" y="-64"/>
      <point x="214" y="-64" type="curve" smooth="yes"/>
      <point x="515" y="-64"/>
      <point x="760" y="159"/>
      <point x="900" y="704" type="curve"/>
      <point x="1124" y="448"/>
      <point x="1130" y="-64"/>
      <point x="1514" y="-64" type="curve" smooth="yes"/>
      <point x="1775" y="-64"/>
      <point x="2015" y="114"/>
      <point x="2015" y="110" type="curve"/>
      <point x="1899" y="306" type="line"/>
      <point x="1792" y="220"/>
      <point x="1642" y="160"/>
      <point x="1540" y="160" type="curve" smooth="yes"/>
      <point x="1375" y="160"/>
      <point x="1284" y="384"/>
      <point x="1124" y="800" type="curve"/>
      <point x="1701" y="800"/>
      <point x="1860" y="1023"/>
      <point x="1860" y="1474" type="curve"/>
      <point x="1857" y="1516"/>
      <point x="1859" y="1574"/>
      <point x="1857" y="1604" type="curve" smooth="yes"/>
      <point x="1855" y="1631"/>
      <point x="1837" y="1696"/>
      <point x="1732" y="1696" type="curve"/>
      <point x="1592" y="1683"/>
      <point x="1604" y="1669"/>
      <point x="1604" y="1536" type="curve" smooth="yes"/>
      <point x="1604" y="1044"/>
      <point x="1379" y="992"/>
      <point x="964" y="992" type="curve" smooth="yes"/>
      <point x="964" y="992"/>
      <point x="982" y="1267"/>
    </contour>
  </outline>
</glyph>
<glyph name="N" format="1">
  <advance width="1693"/>
  <unicode hex="004E"/>
  <outline>
    <contour>
      <point x="481" y="767" type="line"/>
      <point x="549" y="992"/>
      <point x="614" y="1226"/>
      <point x="614" y="1402" type="curve" smooth="yes"/>
      <point x="614" y="1577"/>
      <point x="550" y="1696"/>
      <point x="360" y="1696" type="curve" smooth="yes"/>
      <point x="235" y="1696"/>
      <point x="91" y="1586"/>
      <point x="2" y="1285" type="curve"/>
      <point x="-1" y="1282"/>
      <point x="-2" y="1279"/>
      <point x="-2" y="1275" type="curve" smooth="yes"/>
      <point x="-2" y="1246"/>
      <point x="45" y="1196"/>
      <point x="79" y="1196" type="curve" smooth="yes"/>
      <point x="100" y="1196"/>
      <point x="119" y="1204"/>
      <point x="127" y="1224" type="curve"/>
      <point x="197" y="1362"/>
      <point x="300" y="1471"/>
      <point x="354" y="1471" type="curve" smooth="yes"/>
      <point x="394" y="1471"/>
      <point x="390" y="1416"/>
      <point x="390" y="1391" type="curve"/>
      <point x="363" y="992"/>
      <point x="308" y="753"/>
      <point x="208" y="299" type="curve" smooth="yes"/>
      <point x="198" y="252"/>
      <point x="192" y="209"/>
      <point x="192" y="154" type="curve" smooth="yes"/>
      <point x="192" y="47"/>
      <point x="257" y="-14"/>
      <point x="327" y="-14" type="curve" smooth="yes"/>
      <point x="386" y="-14"/>
      <point x="436" y="14"/>
      <point x="473" y="85" type="curve"/>
      <point x="650" y="621"/>
      <point x="930" y="1472"/>
      <point x="1143" y="1472" type="curve" smooth="yes"/>
      <point x="1207" y="1472"/>
      <point x="1212" y="1368"/>
      <point x="1212" y="1327" type="curve" smooth="yes"/>
      <point x="1212" y="1099"/>
      <point x="1046" y="816"/>
      <point x="1046" y="505" type="curve" smooth="yes"/>
      <point x="1046" y="270"/>
      <point x="1116" y="-41"/>
      <point x="1395" y="-41" type="curve" smooth="yes"/>
      <point x="1611" y="-41"/>
      <point x="1856" y="130"/>
      <point x="1983" y="303" type="curve"/>
      <point x="1923" y="520" type="line"/>
      <point x="1925" y="517"/>
      <point x="1653" y="191"/>
      <point x="1460" y="191" type="curve" smooth="yes"/>
      <point x="1323" y="191"/>
      <point x="1312" y="373"/>
      <point x="1312" y="467" type="curve" smooth="yes"/>
      <point x="1312" y="763"/>
      <point x="1440" y="1189"/>
      <point x="1440" y="1427" type="curve" smooth="yes"/>
      <point x="1440" y="1562"/>
      <point x="1378" y="1728"/>
      <point x="1223" y="1728" type="curve" smooth="yes"/>
      <point x="1025" y="1728"/>
      <point x="776" y="1579"/>
      <point x="498" y="761" type="curve"/>
    </contour>
  </outline>
</glyph>
<glyph name="S" format="1">
  <advance width="1578"/>
  <unicode hex="0053"/>
  <outline>
    <contour>
      <point x="593" y="1312" type="curve" smooth="yes"/>
      <point x="593" y="1416"/>
      <point x="708" y="1537"/>
      <point x="948" y="1537" type="curve" smooth="yes"/>
      <point x="1164" y="1537"/>
      <point x="1317" y="1466"/>
      <point x="1317" y="1331" type="curve" smooth="yes"/>
      <point x="1317" y="1287"/>
      <point x="1300" y="1235"/>
      <point x="1264" y="1177" type="curve" smooth="yes"/>
      <point x="1226" y="1116"/>
      <point x="1211" y="1069"/>
      <point x="1211" y="1034" type="curve" smooth="yes"/>
      <point x="1211" y="987"/>
      <point x="1239" y="964"/>
      <point x="1279" y="964" type="curve" smooth="yes"/>
      <point x="1332" y="964"/>
      <point x="1405" y="1005"/>
      <point x="1460" y="1088" type="curve" smooth="yes"/>
      <point x="1517" y="1174"/>
      <point x="1542" y="1255"/>
      <point x="1542" y="1330" type="curve" smooth="yes"/>
      <point x="1542" y="1586"/>
      <point x="1265" y="1760"/>
      <point x="988" y="1760" type="curve" smooth="yes"/>
      <point x="552" y="1760"/>
      <point x="336" y="1527"/>
      <point x="336" y="1304" type="curve" smooth="yes"/>
      <point x="336" y="824"/>
      <point x="1236" y="793"/>
      <point x="1236" y="416" type="curve" smooth="yes"/>
      <point x="1236" y="211"/>
      <point x="984" y="96"/>
      <point x="751" y="96" type="curve" smooth="yes"/>
      <point x="553" y="96"/>
      <point x="369" y="180"/>
      <point x="369" y="366" type="curve" smooth="yes"/>
      <point x="369" y="451"/>
      <point x="394" y="508"/>
      <point x="394" y="552" type="curve" smooth="yes"/>
      <point x="394" y="601"/>
      <point x="361" y="624"/>
      <point x="319" y="624" type="curve" smooth="yes"/>
      <point x="236" y="624"/>
      <point x="114" y="535"/>
      <point x="114" y="365" type="curve" smooth="yes"/>
      <point x="114" y="34"/>
      <point x="437" y="-128"/>
      <point x="770" y="-128" type="curve" smooth="yes"/>
      <point x="1125" y="-128"/>
      <point x="1492" y="56"/>
      <point x="1492" y="416" type="curve" smooth="yes"/>
      <point x="1492" y="946"/>
      <point x="593" y="959"/>
    </contour>
  </outline>
</glyph>
<glyph name="X" format="1">
  <advance width="1536"/>
  <unicode hex="0058"/>
  <outline>
    <contour>
      <point x="696" y="903" type="line"/>
      <point x="702" y="909"/>
      <point x="161" y="252"/>
      <point x="50" y="109" type="curve" smooth="yes"/>
      <point x="19" y="69"/>
      <point x="3" y="29"/>
      <point x="3" y="-5" type="curve" smooth="yes"/>
      <point x="3" y="-63"/>
      <point x="48" y="-105"/>
      <point x="140" y="-105" type="curve" smooth="yes"/>
      <point x="205" y="-105"/>
      <point x="270" y="-75"/>
      <point x="302" y="-31" type="curve" smooth="yes"/>
      <point x="393" y="96"/>
      <point x="774" y="671"/>
      <point x="774" y="671" type="curve"/>
      <point x="906" y="50"/>
      <point x="981" y="-64"/>
      <point x="1207" y="-64" type="curve" smooth="yes"/>
      <point x="1336" y="-64"/>
      <point x="1526" y="47"/>
      <point x="1702" y="257" type="curve"/>
      <point x="1717" y="272"/>
      <point x="1724" y="289"/>
      <point x="1724" y="310" type="curve" smooth="yes"/>
      <point x="1724" y="365"/>
      <point x="1674" y="431"/>
      <point x="1629" y="431" type="curve" smooth="yes"/>
      <point x="1617" y="431"/>
      <point x="1605" y="426"/>
      <point x="1595" y="416" type="curve"/>
      <point x="1477" y="233"/>
      <point x="1376" y="159"/>
      <point x="1295" y="159" type="curve" smooth="yes"/>
      <point x="1104" y="159"/>
      <point x="1128" y="420"/>
      <point x="1000" y="901" type="curve"/>
      <point x="1168" y="1150"/>
      <point x="1365" y="1412"/>
      <point x="1443" y="1412" type="curve" smooth="yes"/>
      <point x="1481" y="1412"/>
      <point x="1441" y="1257"/>
      <point x="1481" y="1257" type="curve" smooth="yes"/>
      <point x="1593" y="1257"/>
      <point x="1671" y="1322"/>
      <point x="1671" y="1450" type="curve" smooth="yes"/>
      <point x="1671" y="1579"/>
      <point x="1614" y="1710"/>
      <point x="1531" y="1710" type="curve" smooth="yes"/>
      <point x="1400" y="1710"/>
      <point x="1122" y="1411"/>
      <point x="925" y="1116" type="curve"/>
      <point x="812" y="1657"/>
      <point x="579" y="1728"/>
      <point x="380" y="1728" type="curve" smooth="yes"/>
      <point x="228" y="1728"/>
      <point x="114" y="1633"/>
      <point x="114" y="1436" type="curve" smooth="yes"/>
      <point x="114" y="1393"/>
      <point x="137" y="1214"/>
      <point x="178" y="1214" type="curve" smooth="yes"/>
      <point x="187" y="1214"/>
      <point x="197" y="1223"/>
      <point x="208" y="1244" type="curve" smooth="yes"/>
      <point x="272" y="1368"/>
      <point x="373" y="1472"/>
      <point x="390" y="1472" type="curve" smooth="yes"/>
      <point x="591" y="1472"/>
      <point x="656" y="1154"/>
      <point x="687" y="934" type="curve"/>
    </contour>
  </outline>
</glyph>
<glyph name="Y" format="1">
  <advance width="1392"/>
  <unicode hex="0059"/>
  <outline>
    <contour>
      <point x="1056" y="605" type="line"/>
      <point x="1260" y="923"/>
      <point x="1429" y="1248"/>
      <point x="1489" y="1388" type="curve" smooth="yes"/>
      <point x="1507" y="1430"/>
      <point x="1515" y="1463"/>
      <point x="1515" y="1491" type="curve" smooth="yes"/>
      <point x="1515" y="1572"/>
      <point x="1458" y="1602"/>
      <point x="1403" y="1602" type="curve" smooth="yes"/>
      <point x="1350" y="1602"/>
      <point x="1298" y="1580"/>
      <point x="1281" y="1548" type="curve" smooth="yes"/>
      <point x="1218" y="1427"/>
      <point x="1082" y="1150"/>
      <point x="924" y="864" type="curve"/>
      <point x="749" y="1267"/>
      <point x="558" y="1596"/>
      <point x="253" y="1596" type="curve" smooth="yes"/>
      <point x="142" y="1596"/>
      <point x="95" y="1540"/>
      <point x="95" y="1494" type="curve" smooth="yes"/>
      <point x="95" y="1348"/>
      <point x="127" y="1208"/>
      <point x="181" y="1208" type="curve" smooth="yes"/>
      <point x="196" y="1208"/>
      <point x="209" y="1210"/>
      <point x="209" y="1233" type="curve" smooth="yes"/>
      <point x="209" y="1248"/>
      <point x="205" y="1269"/>
      <point x="205" y="1289" type="curve" smooth="yes"/>
      <point x="205" y="1325"/>
      <point x="217" y="1360"/>
      <point x="280" y="1360" type="curve" smooth="yes"/>
      <point x="462" y="1360"/>
      <point x="636" y="996"/>
      <point x="774" y="645" type="curve"/>
      <point x="694" y="505"/>
      <point x="579" y="159"/>
      <point x="280" y="159" type="curve" smooth="yes"/>
      <point x="245" y="159"/>
      <point x="204" y="171"/>
      <point x="163" y="197" type="curve"/>
      <point x="157" y="199"/>
      <point x="152" y="200"/>
      <point x="148" y="200" type="curve" smooth="yes"/>
      <point x="125" y="200"/>
      <point x="117" y="182"/>
      <point x="117" y="162" type="curve" smooth="yes"/>
      <point x="117" y="141"/>
      <point x="125" y="118"/>
      <point x="133" y="108" type="curve"/>
      <point x="145" y="77"/>
      <point x="268" y="-35"/>
      <point x="374" y="-35" type="curve" smooth="yes"/>
      <point x="549" y="-35"/>
      <point x="667" y="58"/>
      <point x="996" y="506" type="curve"/>
    </contour>
  </outline>
</glyph>
<glyph name="bracketright" format="1">
  <advance width="927"/>
  <unicode hex="005D"/>
  <outline>
    <contour>
      <point x="696" y="60" type="curve"/>
      <point x="696" y="60"/>
      <point x="799" y="930"/>
      <point x="896" y="1415" type="curve" smooth="yes"/>
      <point x="902" y="1447"/>
      <point x="912" y="1489"/>
      <point x="912" y="1528" type="curve" smooth="yes"/>
      <point x="912" y="1600"/>
      <point x="880" y="1667"/>
      <point x="735" y="1667" type="curve" smooth="yes"/>
      <point x="389" y="1667" type="line" smooth="yes"/>
      <point x="311" y="1667"/>
      <point x="264" y="1585"/>
      <point x="264" y="1544" type="curve" smooth="yes"/>
      <point x="264" y="1491"/>
      <point x="319" y="1443"/>
      <point x="369" y="1443" type="curve" smooth="yes"/>
      <point x="629" y="1443" type="line"/>
      <point x="629" y="1450"/>
      <point x="415" y="45"/>
      <point x="416" y="32" type="curve"/>
      <point x="119" y="32" type="line" smooth="yes"/>
      <point x="66" y="32"/>
      <point x="0" y="-24"/>
      <point x="0" y="-80" type="curve" smooth="yes"/>
      <point x="0" y="-123"/>
      <point x="37" y="-192"/>
      <point x="108" y="-192" type="curve" smooth="yes"/>
      <point x="416" y="-192" type="line" smooth="yes"/>
      <point x="640" y="-192"/>
      <point x="671" y="-32"/>
    </contour>
  </outline>
</glyph>
<glyph name="asciicircum" format="1">
  <advance width="1089"/>
  <unicode hex="005E"/>
  <outline>
    <contour>
      <point x="1013" y="680" type="curve"/>
      <point x="940" y="870"/>
      <point x="860" y="1043"/>
      <point x="785" y="1189" type="curve"/>
      <point x="720" y="1321"/>
      <point x="641" y="1344"/>
      <point x="567" y="1344" type="curve" smooth="yes"/>
      <point x="496" y="1344"/>
      <point x="416" y="1288"/>
      <point x="356" y="1156" type="curve" smooth="yes"/>
      <point x="349" y="1141"/>
      <point x="113" y="692"/>
      <point x="107" y="681" type="curve" smooth="yes"/>
      <point x="96" y="661"/>
      <point x="93" y="638"/>
      <point x="93" y="621" type="curve" smooth="yes"/>
      <point x="93" y="561"/>
      <point x="138" y="511"/>
      <point x="194" y="511" type="curve" smooth="yes"/>
      <point x="234" y="511"/>
      <point x="281" y="536"/>
      <point x="318" y="603" type="curve"/>
      <point x="578" y="1124" type="line"/>
      <point x="784" y="642" type="line"/>
      <point x="796" y="602"/>
      <point x="854" y="508"/>
      <point x="933" y="508" type="curve" smooth="yes"/>
      <point x="968" y="508"/>
      <point x="1023" y="550"/>
      <point x="1023" y="622" type="curve" smooth="yes"/>
      <point x="1023" y="639"/>
      <point x="1020" y="658"/>
    </contour>
  </outline>
</glyph>
<glyph name="grave" format="1">
  <advance width="609"/>
  <unicode hex="0060"/>
  <outline>
    <contour>
      <point x="496" y="1203" type="curve" smooth="yes"/>
      <point x="466" y="1276"/>
      <point x="304" y="1646"/>
      <point x="304" y="1646" type="curve"/>
      <point x="287" y="1691"/>
      <point x="248" y="1710"/>
      <point x="209" y="1710" type="curve" smooth="yes"/>
      <point x="140" y="1710"/>
      <point x="64" y="1653"/>
      <point x="64" y="1574" type="curve" smooth="yes"/>
      <point x="64" y="1543"/>
      <point x="76" y="1512"/>
      <point x="101" y="1477" type="curve" smooth="yes"/>
      <point x="176" y="1374"/>
      <point x="330" y="1186"/>
      <point x="380" y="1125" type="curve" smooth="yes"/>
      <point x="401" y="1099"/>
      <point x="426" y="1088"/>
      <point x="448" y="1088" type="curve" smooth="yes"/>
      <point x="480" y="1088"/>
      <point x="506" y="1115"/>
      <point x="506" y="1155" type="curve" smooth="yes"/>
      <point x="506" y="1169"/>
      <point x="503" y="1186"/>
    </contour>
  </outline>
</glyph>
<glyph name="b" format="1">
  <advance width="964"/>
  <unicode hex="0062"/>
  <outline>
    <contour>
      <point x="462" y="816" type="line"/>
      <point x="649" y="1043"/>
      <point x="858" y="1338"/>
      <point x="858" y="1591" type="curve" smooth="yes"/>
      <point x="858" y="1773"/>
      <point x="826" y="1920"/>
      <point x="624" y="1920" type="curve" smooth="yes"/>
      <point x="352" y="1920"/>
      <point x="195" y="1201"/>
      <point x="130" y="809" type="curve" smooth="yes"/>
      <point x="66" y="420"/>
      <point x="58" y="152"/>
      <point x="58" y="152" type="curve"/>
      <point x="64" y="141"/>
      <point x="273" y="2"/>
      <point x="482" y="2" type="curve" smooth="yes"/>
      <point x="569" y="2"/>
      <point x="657" y="27"/>
      <point x="730" y="96" type="curve"/>
      <point x="918" y="140"/>
      <point x="1057" y="197"/>
      <point x="1204" y="331" type="curve"/>
      <point x="1127" y="496" type="line"/>
      <point x="1021" y="389"/>
      <point x="923" y="344"/>
      <point x="826" y="288" type="curve"/>
      <point x="887" y="362"/>
      <point x="924" y="492"/>
      <point x="924" y="618" type="curve" smooth="yes"/>
      <point x="924" y="793"/>
      <point x="852" y="960"/>
      <point x="673" y="960" type="curve" smooth="yes"/>
      <point x="612" y="960"/>
      <point x="552" y="898"/>
      <point x="478" y="805" type="curve"/>
    </contour>
    <contour>
      <point x="568" y="732" type="curve" smooth="yes"/>
      <point x="673" y="732"/>
      <point x="698" y="673"/>
      <point x="698" y="607" type="curve" smooth="yes"/>
      <point x="698" y="454"/>
      <point x="640" y="192"/>
      <point x="502" y="192" type="curve" smooth="yes"/>
      <point x="427" y="192"/>
      <point x="314" y="225"/>
      <point x="314" y="225" type="curve"/>
      <point x="314" y="225"/>
      <point x="323" y="339"/>
      <point x="346" y="480" type="curve" smooth="yes"/>
      <point x="375" y="658"/>
      <point x="474" y="732"/>
    </contour>
    <contour>
      <point x="666" y="1648" type="curve"/>
      <point x="648" y="1366"/>
      <point x="456" y="1102"/>
      <point x="346" y="895" type="curve"/>
      <point x="376" y="1071"/>
      <point x="506" y="1728"/>
      <point x="615" y="1728" type="curve" smooth="yes"/>
      <point x="661" y="1728"/>
      <point x="666" y="1658"/>
    </contour>
  </outline>
</glyph>
<glyph name="c" format="1">
  <advance width="736"/>
  <unicode hex="0063"/>
  <outline>
    <contour>
      <point x="437" y="0" type="curve" smooth="yes"/>
      <point x="721" y="0"/>
      <point x="974" y="381"/>
      <point x="974" y="381" type="curve"/>
      <point x="905" y="497" type="line"/>
      <point x="804" y="368"/>
      <point x="607" y="192"/>
      <point x="480" y="192" type="curve" smooth="yes"/>
      <point x="350" y="192"/>
      <point x="320" y="319"/>
      <point x="320" y="414" type="curve" smooth="yes"/>
      <point x="320" y="509"/>
      <point x="339" y="768"/>
      <point x="502" y="768" type="curve" smooth="yes"/>
      <point x="524" y="768"/>
      <point x="529" y="744"/>
      <point x="529" y="712" type="curve" smooth="yes"/>
      <point x="529" y="691"/>
      <point x="526" y="662"/>
      <point x="526" y="638" type="curve" smooth="yes"/>
      <point x="526" y="579"/>
      <point x="539" y="544"/>
      <point x="602" y="544" type="curve" smooth="yes"/>
      <point x="686" y="544"/>
      <point x="736" y="639"/>
      <point x="736" y="729" type="curve" smooth="yes"/>
      <point x="736" y="860"/>
      <point x="627" y="960"/>
      <point x="474" y="960" type="curve" smooth="yes"/>
      <point x="208" y="960"/>
      <point x="64" y="644"/>
      <point x="64" y="413" type="curve" smooth="yes"/>
      <point x="64" y="196"/>
      <point x="192" y="0"/>
    </contour>
  </outline>
</glyph>
<glyph name="d" format="1">
  <advance width="1036"/>
  <unicode hex="0064"/>
  <outline>
    <contour>
      <point x="549" y="756" type="curve" smooth="yes"/>
      <point x="554" y="759"/>
      <point x="552" y="402"/>
      <point x="564" y="329" type="curve"/>
      <point x="503" y="251"/>
      <point x="417" y="191"/>
      <point x="355" y="191" type="curve" smooth="yes"/>
      <point x="308" y="191"/>
      <point x="275" y="224"/>
      <point x="275" y="308" type="curve" smooth="yes"/>
      <point x="275" y="441"/>
      <point x="372" y="672"/>
    </contour>
    <contour>
      <point x="1207" y="427" type="line"/>
      <point x="1207" y="427"/>
      <point x="1003" y="245"/>
      <point x="903" y="245" type="curve" smooth="yes"/>
      <point x="849" y="245"/>
      <point x="833" y="315"/>
      <point x="833" y="391" type="curve" smooth="yes"/>
      <point x="833" y="452"/>
      <point x="850" y="527"/>
      <point x="863" y="564" type="curve"/>
      <point x="1015" y="918"/>
      <point x="1205" y="1257"/>
      <point x="1205" y="1626" type="curve" smooth="yes"/>
      <point x="1205" y="1779"/>
      <point x="1159" y="1920"/>
      <point x="1033" y="1920" type="curve" smooth="yes"/>
      <point x="777" y="1920"/>
      <point x="559" y="1418"/>
      <point x="545" y="905" type="curve"/>
      <point x="242" y="876"/>
      <point x="35" y="586"/>
      <point x="35" y="330" type="curve" smooth="yes"/>
      <point x="35" y="163"/>
      <point x="117" y="0"/>
      <point x="289" y="0" type="curve" smooth="yes"/>
      <point x="411" y="0"/>
      <point x="536" y="82"/>
      <point x="635" y="178" type="curve"/>
      <point x="699" y="23"/>
      <point x="821" y="1"/>
      <point x="858" y="1" type="curve" smooth="yes"/>
      <point x="991" y="1"/>
      <point x="1237" y="196"/>
      <point x="1237" y="196" type="curve"/>
    </contour>
    <contour>
      <point x="789" y="713" type="curve"/>
      <point x="789" y="761"/>
      <point x="788" y="896"/>
      <point x="800" y="1049" type="curve" smooth="yes"/>
      <point x="807" y="1146"/>
      <point x="860" y="1688"/>
      <point x="988" y="1688" type="curve" smooth="yes"/>
      <point x="1012" y="1688"/>
      <point x="1025" y="1664"/>
      <point x="1025" y="1592" type="curve" smooth="yes"/>
      <point x="1025" y="1320"/>
      <point x="897" y="955"/>
    </contour>
  </outline>
</glyph>
<glyph name="h" format="1">
  <advance width="999"/>
  <unicode hex="0068"/>
  <outline>
    <contour>
      <point x="431" y="636" type="line"/>
      <point x="569" y="890"/>
      <point x="845" y="1403"/>
      <point x="845" y="1699" type="curve" smooth="yes"/>
      <point x="845" y="1832"/>
      <point x="808" y="1920"/>
      <point x="665" y="1920" type="curve" smooth="yes"/>
      <point x="110" y="1920"/>
      <point x="95" y="581"/>
      <point x="95" y="223" type="curve" smooth="yes"/>
      <point x="95" y="111"/>
      <point x="105" y="0"/>
      <point x="192" y="0" type="curve" smooth="yes"/>
      <point x="260" y="0"/>
      <point x="268" y="57"/>
      <point x="326" y="177" type="curve" smooth="yes"/>
      <point x="443" y="420"/>
      <point x="635" y="649"/>
      <point x="679" y="677" type="curve"/>
      <point x="700" y="674" type="line"/>
      <point x="689" y="664"/>
      <point x="577" y="388"/>
      <point x="577" y="226" type="curve" smooth="yes"/>
      <point x="577" y="129"/>
      <point x="644" y="0"/>
      <point x="791" y="0" type="curve" smooth="yes"/>
      <point x="934" y="0"/>
      <point x="1132" y="156"/>
      <point x="1203" y="212" type="curve"/>
      <point x="1186" y="478" type="line"/>
      <point x="1186" y="478"/>
      <point x="992" y="236"/>
      <point x="861" y="236" type="curve" smooth="yes"/>
      <point x="836" y="236"/>
      <point x="827" y="261"/>
      <point x="827" y="301" type="curve" smooth="yes"/>
      <point x="827" y="443"/>
      <point x="948" y="776"/>
      <point x="948" y="868" type="curve" smooth="yes"/>
      <point x="948" y="958"/>
      <point x="892" y="978"/>
      <point x="861" y="978" type="curve" smooth="yes"/>
      <point x="734" y="978"/>
      <point x="560" y="765"/>
      <point x="451" y="622" type="curve"/>
    </contour>
    <contour>
      <point x="540" y="1240" type="curve"/>
      <point x="492" y="1120"/>
      <point x="387" y="879"/>
      <point x="314" y="710" type="curve"/>
      <point x="314" y="710"/>
      <point x="343" y="1103"/>
      <point x="435" y="1397" type="curve"/>
      <point x="527" y="1612"/>
      <point x="598" y="1729"/>
      <point x="632" y="1729" type="curve" smooth="yes"/>
      <point x="645" y="1729"/>
      <point x="652" y="1705"/>
      <point x="652" y="1653" type="curve" smooth="yes"/>
      <point x="652" y="1587"/>
      <point x="618" y="1443"/>
    </contour>
  </outline>
</glyph>
<glyph name="k" format="1">
  <advance width="957"/>
  <unicode hex="006B"/>
  <outline>
    <contour>
      <point x="396" y="572" type="line"/>
      <point x="509" y="752" type="line"/>
      <point x="545" y="816"/>
      <point x="832" y="1343"/>
      <point x="832" y="1685" type="curve" smooth="yes"/>
      <point x="832" y="1814"/>
      <point x="795" y="1907"/>
      <point x="660" y="1907" type="curve" smooth="yes"/>
      <point x="312" y="1907"/>
      <point x="189" y="1283"/>
      <point x="153" y="1062" type="curve" smooth="yes"/>
      <point x="102" y="752"/>
      <point x="83" y="383"/>
      <point x="83" y="230" type="curve" smooth="yes"/>
      <point x="83" y="105"/>
      <point x="95" y="0"/>
      <point x="209" y="0" type="curve" smooth="yes"/>
      <point x="243" y="0"/>
      <point x="282" y="18"/>
      <point x="313" y="71" type="curve" smooth="yes"/>
      <point x="607" y="587" type="line"/>
      <point x="650" y="660"/>
      <point x="681" y="694"/>
      <point x="704" y="694" type="curve" smooth="yes"/>
      <point x="730" y="694"/>
      <point x="739" y="685"/>
      <point x="739" y="671" type="curve" smooth="yes"/>
      <point x="739" y="635"/>
      <point x="674" y="566"/>
      <point x="657" y="538" type="curve" smooth="yes"/>
      <point x="529" y="330"/>
      <point x="514" y="267"/>
      <point x="514" y="205" type="curve" smooth="yes"/>
      <point x="514" y="106"/>
      <point x="599" y="-1"/>
      <point x="732" y="-1" type="curve" smooth="yes"/>
      <point x="924" y="-1"/>
      <point x="1027" y="102"/>
      <point x="1159" y="251" type="curve"/>
      <point x="1099" y="456" type="line"/>
      <point x="1033" y="384"/>
      <point x="895" y="193"/>
      <point x="815" y="193" type="curve" smooth="yes"/>
      <point x="766" y="193"/>
      <point x="743" y="212"/>
      <point x="743" y="260" type="curve" smooth="yes"/>
      <point x="743" y="358"/>
      <point x="1023" y="612"/>
      <point x="1023" y="776" type="curve" smooth="yes"/>
      <point x="1023" y="909"/>
      <point x="940" y="962"/>
      <point x="851" y="962" type="curve" smooth="yes"/>
      <point x="677" y="962"/>
      <point x="596" y="779"/>
      <point x="414" y="559" type="curve"/>
    </contour>
    <contour>
      <point x="610" y="1682" type="curve" smooth="yes"/>
      <point x="625" y="1682"/>
      <point x="631" y="1670"/>
      <point x="631" y="1650" type="curve" smooth="yes"/>
      <point x="631" y="1560"/>
      <point x="526" y="1328"/>
      <point x="497" y="1239" type="curve" smooth="yes"/>
      <point x="456" y="1115"/>
      <point x="372" y="861"/>
      <point x="312" y="685" type="curve"/>
      <point x="312" y="685"/>
      <point x="339" y="1094"/>
      <point x="424" y="1397" type="curve"/>
      <point x="494" y="1571"/>
      <point x="525" y="1682"/>
    </contour>
  </outline>
</glyph>
<glyph name="l" format="1">
  <advance width="523"/>
  <unicode hex="006C"/>
  <outline>
    <contour>
      <point x="329" y="0" type="curve" smooth="yes"/>
      <point x="511" y="0"/>
      <point x="818" y="227"/>
      <point x="818" y="227" type="curve"/>
      <point x="736" y="437" type="line"/>
      <point x="736" y="437"/>
      <point x="497" y="244"/>
      <point x="396" y="244" type="curve" smooth="yes"/>
      <point x="353" y="244"/>
      <point x="330" y="366"/>
      <point x="330" y="461" type="curve" smooth="yes"/>
      <point x="330" y="509"/>
      <point x="336" y="550"/>
      <point x="348" y="565" type="curve" smooth="yes"/>
      <point x="602" y="880"/>
      <point x="849" y="1317"/>
      <point x="849" y="1694" type="curve" smooth="yes"/>
      <point x="849" y="1805"/>
      <point x="820" y="1920"/>
      <point x="705" y="1920" type="curve" smooth="yes"/>
      <point x="367" y="1920"/>
      <point x="124" y="1366"/>
      <point x="74" y="582" type="curve" smooth="yes"/>
      <point x="73" y="561"/>
      <point x="72" y="540"/>
      <point x="72" y="519" type="curve" smooth="yes"/>
      <point x="72" y="236"/>
      <point x="196" y="0"/>
    </contour>
    <contour>
      <point x="320" y="740" type="curve"/>
      <point x="320" y="1196"/>
      <point x="514" y="1641"/>
      <point x="630" y="1641" type="curve" smooth="yes"/>
      <point x="641" y="1641"/>
      <point x="661" y="1631"/>
      <point x="661" y="1593" type="curve"/>
      <point x="636" y="1351"/>
      <point x="439" y="953"/>
    </contour>
  </outline>
</glyph>
<glyph name="m" format="1">
  <advance width="1338"/>
  <unicode hex="006D"/>
  <outline>
    <contour>
      <point x="562" y="187" type="curve" smooth="yes"/>
      <point x="562" y="105"/>
      <point x="576" y="0"/>
      <point x="660" y="0" type="curve" smooth="yes"/>
      <point x="716" y="0"/>
      <point x="757" y="16"/>
      <point x="792" y="71" type="curve"/>
      <point x="995" y="588" type="line"/>
      <point x="1010" y="588" type="line"/>
      <point x="1000" y="492"/>
      <point x="993" y="396"/>
      <point x="993" y="312" type="curve" smooth="yes"/>
      <point x="993" y="133"/>
      <point x="1024" y="0"/>
      <point x="1121" y="0" type="curve" smooth="yes"/>
      <point x="1316" y="0"/>
      <point x="1420" y="116"/>
      <point x="1538" y="210" type="curve"/>
      <point x="1521" y="446" type="line"/>
      <point x="1521" y="446"/>
      <point x="1355" y="239"/>
      <point x="1242" y="239" type="curve" smooth="yes"/>
      <point x="1216" y="239"/>
      <point x="1194" y="290"/>
      <point x="1194" y="361" type="curve" smooth="yes"/>
      <point x="1194" y="546"/>
      <point x="1240" y="681"/>
      <point x="1240" y="866" type="curve" smooth="yes"/>
      <point x="1240" y="925"/>
      <point x="1190" y="960"/>
      <point x="1128" y="960" type="curve" smooth="yes"/>
      <point x="1072" y="960"/>
      <point x="1037" y="918"/>
      <point x="999" y="865" type="curve" smooth="yes"/>
      <point x="920" y="755"/>
      <point x="800" y="554"/>
      <point x="795" y="546" type="curve"/>
      <point x="784" y="558" type="line"/>
      <point x="784" y="561"/>
      <point x="784" y="564"/>
      <point x="791" y="595" type="curve" smooth="yes"/>
      <point x="809" y="682"/>
      <point x="839" y="763"/>
      <point x="839" y="866" type="curve" smooth="yes"/>
      <point x="839" y="925"/>
      <point x="793" y="960"/>
      <point x="737" y="960" type="curve" smooth="yes"/>
      <point x="677" y="960"/>
      <point x="637" y="919"/>
      <point x="598" y="865" type="curve" smooth="yes"/>
      <point x="519" y="757"/>
      <point x="409" y="554"/>
      <point x="404" y="546" type="curve"/>
      <point x="393" y="558" type="line"/>
      <point x="393" y="558"/>
      <point x="432" y="781"/>
      <point x="432" y="869" type="curve" smooth="yes"/>
      <point x="432" y="933"/>
      <point x="392" y="964"/>
      <point x="346" y="964" type="curve" smooth="yes"/>
      <point x="296" y="964"/>
      <point x="240" y="929"/>
      <point x="218" y="862" type="curve" smooth="yes"/>
      <point x="177" y="737"/>
      <point x="114" y="375"/>
      <point x="114" y="209" type="curve" smooth="yes"/>
      <point x="114" y="103"/>
      <point x="131" y="0"/>
      <point x="241" y="0" type="curve" smooth="yes"/>
      <point x="284" y="0"/>
      <point x="319" y="16"/>
      <point x="346" y="70" type="curve" smooth="yes"/>
      <point x="529" y="442"/>
      <point x="569" y="546"/>
      <point x="601" y="585" type="curve"/>
      <point x="616" y="585" type="line"/>
      <point x="616" y="585"/>
      <point x="562" y="258"/>
    </contour>
  </outline>
</glyph>
<glyph name="o" format="1">
  <advance width="843"/>
  <unicode hex="006F"/>
  <outline>
    <contour>
      <point x="753" y="760" type="line"/>
      <point x="848" y="696"/>
      <point x="1038" y="562"/>
      <point x="1111" y="465" type="curve"/>
      <point x="1130" y="606" type="line"/>
      <point x="986" y="788"/>
      <point x="798" y="960"/>
      <point x="545" y="960" type="curve" smooth="yes"/>
      <point x="248" y="960"/>
      <point x="67" y="730"/>
      <point x="67" y="437" type="curve" smooth="yes"/>
      <point x="67" y="225"/>
      <point x="163" y="0"/>
      <point x="397" y="0" type="curve" smooth="yes"/>
      <point x="643" y="0"/>
      <point x="803" y="267"/>
      <point x="803" y="503" type="curve" smooth="yes"/>
      <point x="803" y="581"/>
      <point x="783" y="672"/>
      <point x="745" y="749" type="curve"/>
    </contour>
    <contour>
      <point x="436" y="192" type="curve" smooth="yes"/>
      <point x="331" y="192"/>
      <point x="291" y="285"/>
      <point x="291" y="396" type="curve" smooth="yes"/>
      <point x="291" y="559"/>
      <point x="384" y="768"/>
      <point x="494" y="768" type="curve" smooth="yes"/>
      <point x="576" y="768"/>
      <point x="611" y="673"/>
      <point x="611" y="551" type="curve" smooth="yes"/>
      <point x="611" y="396"/>
      <point x="528" y="192"/>
    </contour>
  </outline>
</glyph>
<glyph name="p" format="1">
  <advance width="781"/>
  <unicode hex="0070"/>
  <outline>
    <contour>
      <point x="444" y="199" type="line"/>
      <point x="685" y="307"/>
      <point x="790" y="471"/>
      <point x="790" y="651" type="curve" smooth="yes"/>
      <point x="790" y="877"/>
      <point x="659" y="960"/>
      <point x="497" y="960" type="curve" smooth="yes"/>
      <point x="171" y="960"/>
      <point x="138" y="576"/>
      <point x="94" y="264" type="curve"/>
      <point x="94" y="264"/>
      <point x="-215" y="-210"/>
      <point x="-215" y="-429" type="curve" smooth="yes"/>
      <point x="-215" y="-618"/>
      <point x="-170" y="-778"/>
      <point x="-18" y="-778" type="curve" smooth="yes"/>
      <point x="171" y="-778"/>
      <point x="348" y="-461"/>
      <point x="348" y="25" type="curve" smooth="yes"/>
      <point x="348" y="43" type="line"/>
      <point x="570" y="10"/>
      <point x="589" y="0"/>
      <point x="608" y="0" type="curve" smooth="yes"/>
      <point x="764" y="0"/>
      <point x="931" y="95"/>
      <point x="1016" y="200" type="curve"/>
      <point x="1005" y="429" type="line"/>
      <point x="888" y="291"/>
      <point x="719" y="178"/>
      <point x="450" y="178" type="curve"/>
    </contour>
    <contour>
      <point x="324" y="279" type="curve"/>
      <point x="324" y="515"/>
      <point x="362" y="774"/>
      <point x="509" y="774" type="curve" smooth="yes"/>
      <point x="598" y="774"/>
      <point x="600" y="663"/>
      <point x="586" y="604" type="curve" smooth="yes"/>
      <point x="554" y="480"/>
      <point x="483" y="359"/>
    </contour>
    <contour>
      <point x="-24" y="-441" type="curve" smooth="yes"/>
      <point x="-24" y="-390"/>
      <point x="43" y="-113"/>
      <point x="119" y="20" type="curve"/>
      <point x="119" y="20"/>
      <point x="118" y="-39"/>
      <point x="110" y="-181" type="curve" smooth="yes"/>
      <point x="103" y="-304"/>
      <point x="112" y="-549"/>
      <point x="44" y="-549" type="curve" smooth="yes"/>
      <point x="-7" y="-549"/>
      <point x="-24" y="-462"/>
    </contour>
  </outline>
</glyph>
<glyph name="q" format="1">
  <advance width="815"/>
  <unicode hex="0071"/>
  <outline>
    <contour>
      <point x="409" y="160" type="curve"/>
      <point x="344" y="-71"/>
      <point x="249" y="-353"/>
      <point x="249" y="-512" type="curve" smooth="yes"/>
      <point x="249" y="-653"/>
      <point x="350" y="-736"/>
      <point x="441" y="-736" type="curve" smooth="yes"/>
      <point x="651" y="-736"/>
      <point x="761" y="-576"/>
      <point x="761" y="-320" type="curve" smooth="yes"/>
      <point x="761" y="-219"/>
      <point x="745" y="-98"/>
      <point x="726" y="6" type="curve"/>
      <point x="894" y="30"/>
      <point x="1000" y="116"/>
      <point x="1081" y="192" type="curve"/>
      <point x="1081" y="416" type="line"/>
      <point x="992" y="345"/>
      <point x="824" y="192"/>
      <point x="729" y="192" type="curve" smooth="yes"/>
      <point x="718" y="192"/>
      <point x="703" y="194"/>
      <point x="687" y="200" type="curve"/>
      <point x="679" y="235"/>
      <point x="673" y="257"/>
      <point x="674" y="256" type="curve"/>
      <point x="674" y="263"/>
      <point x="750" y="526"/>
      <point x="781" y="624" type="curve" smooth="yes"/>
      <point x="788" y="647"/>
      <point x="791" y="674"/>
      <point x="791" y="698" type="curve" smooth="yes"/>
      <point x="791" y="838"/>
      <point x="708" y="960"/>
      <point x="505" y="960" type="curve" smooth="yes"/>
      <point x="281" y="960"/>
      <point x="57" y="763"/>
      <point x="57" y="512" type="curve" smooth="yes"/>
      <point x="57" y="327"/>
      <point x="180" y="156"/>
      <point x="363" y="156" type="curve" smooth="yes"/>
      <point x="378" y="156"/>
      <point x="393" y="157"/>
    </contour>
    <contour>
      <point x="441" y="288" type="curve"/>
      <point x="306" y="298"/>
      <point x="281" y="427"/>
      <point x="281" y="512" type="curve" smooth="yes"/>
      <point x="281" y="617"/>
      <point x="359" y="768"/>
      <point x="505" y="768" type="curve" smooth="yes"/>
      <point x="537" y="768"/>
      <point x="569" y="736"/>
      <point x="569" y="736" type="curve"/>
      <point x="569" y="736"/>
      <point x="451" y="317"/>
    </contour>
    <contour>
      <point x="569" y="33" type="curve"/>
      <point x="591" y="-53"/>
      <point x="601" y="-162"/>
      <point x="601" y="-256" type="curve" smooth="yes"/>
      <point x="601" y="-409"/>
      <point x="566" y="-544"/>
      <point x="463" y="-544" type="curve" smooth="yes"/>
      <point x="441" y="-544"/>
      <point x="426" y="-525"/>
      <point x="426" y="-498" type="curve" smooth="yes"/>
      <point x="426" y="-413"/>
      <point x="551" y="-23"/>
    </contour>
  </outline>
</glyph>
<glyph name="s" format="1">
  <advance width="784"/>
  <unicode hex="0073"/>
  <outline>
    <contour>
      <point x="51" y="384" type="curve" smooth="yes"/>
      <point x="34" y="363"/>
      <point x="-38" y="320"/>
      <point x="-32" y="256" type="curve" smooth="yes"/>
      <point x="-26" y="184"/>
      <point x="6" y="185"/>
      <point x="49" y="185" type="curve" smooth="yes"/>
      <point x="66" y="185"/>
      <point x="85" y="186"/>
      <point x="103" y="190" type="curve"/>
      <point x="129" y="46"/>
      <point x="245" y="-9"/>
      <point x="392" y="-9" type="curve" smooth="yes"/>
      <point x="610" y="-9"/>
      <point x="887" y="97"/>
      <point x="1040" y="224" type="curve"/>
      <point x="1018" y="448" type="line"/>
      <point x="899" y="352"/>
      <point x="774" y="320"/>
      <point x="684" y="256" type="curve"/>
      <point x="660" y="512"/>
      <point x="593" y="547"/>
      <point x="581" y="672" type="curve"/>
      <point x="587" y="701"/>
      <point x="698" y="800"/>
      <point x="692" y="864" type="curve" smooth="yes"/>
      <point x="689" y="896"/>
      <point x="683" y="960"/>
      <point x="555" y="960" type="curve" smooth="yes"/>
      <point x="479" y="960"/>
      <point x="434" y="912"/>
      <point x="404" y="864" type="curve"/>
      <point x="189" y="544"/>
      <point x="180" y="546"/>
    </contour>
    <contour>
      <point x="404" y="512" type="line"/>
      <point x="422" y="469"/>
      <point x="451" y="389"/>
      <point x="458" y="317" type="curve" smooth="yes"/>
      <point x="466" y="234"/>
      <point x="444" y="160"/>
      <point x="341" y="160" type="curve" smooth="yes"/>
      <point x="265" y="160"/>
      <point x="219" y="256"/>
      <point x="191" y="256" type="curve"/>
    </contour>
  </outline>
</glyph>
<glyph name="t" format="1">
  <advance width="621"/>
  <unicode hex="0074"/>
  <outline>
    <contour>
      <point x="960" y="224" type="curve"/>
      <point x="960" y="480" type="line"/>
      <point x="841" y="350"/>
      <point x="617" y="224"/>
      <point x="533" y="224" type="curve" smooth="yes"/>
      <point x="442" y="224"/>
      <point x="386" y="277"/>
      <point x="386" y="420" type="curve" smooth="yes"/>
      <point x="386" y="531"/>
      <point x="399" y="748"/>
      <point x="399" y="748" type="curve"/>
      <point x="432" y="789"/>
      <point x="473" y="843"/>
      <point x="512" y="896" type="curve"/>
      <point x="896" y="896" type="line" smooth="yes"/>
      <point x="928" y="896"/>
      <point x="960" y="928"/>
      <point x="960" y="975" type="curve" smooth="yes"/>
      <point x="960" y="1013"/>
      <point x="949" y="1042"/>
      <point x="922" y="1043" type="curve" smooth="yes"/>
      <point x="856" y="1046"/>
      <point x="658" y="1053"/>
      <point x="623" y="1055" type="curve"/>
      <point x="720" y="1206"/>
      <point x="800" y="1368"/>
      <point x="800" y="1499" type="curve" smooth="yes"/>
      <point x="800" y="1655"/>
      <point x="725" y="1792"/>
      <point x="609" y="1792" type="curve" smooth="yes"/>
      <point x="431" y="1792"/>
      <point x="280" y="1447"/>
      <point x="207" y="1088" type="curve"/>
      <point x="167" y="1079"/>
      <point x="-96" y="1116"/>
      <point x="-96" y="1037" type="curve" smooth="yes"/>
      <point x="-96" y="1012"/>
      <point x="-96" y="967"/>
      <point x="-32" y="960" type="curve" smooth="yes"/>
      <point x="112" y="944"/>
      <point x="99" y="939"/>
      <point x="179" y="928" type="curve"/>
      <point x="167" y="839"/>
      <point x="160" y="745"/>
      <point x="160" y="665" type="curve" smooth="yes"/>
      <point x="160" y="255"/>
      <point x="266" y="0"/>
      <point x="469" y="0" type="curve" smooth="yes"/>
      <point x="568" y="0"/>
      <point x="704" y="75"/>
    </contour>
    <contour>
      <point x="640" y="1490" type="curve" smooth="yes"/>
      <point x="640" y="1405"/>
      <point x="540" y="1209"/>
      <point x="459" y="1073" type="curve"/>
      <point x="438" y="1076"/>
      <point x="418" y="1078"/>
      <point x="398" y="1080" type="curve"/>
      <point x="445" y="1295"/>
      <point x="517" y="1568"/>
      <point x="587" y="1568" type="curve" smooth="yes"/>
      <point x="637" y="1568"/>
      <point x="640" y="1520"/>
    </contour>
  </outline>
</glyph>
<glyph name="v" format="1">
  <advance width="907"/>
  <unicode hex="0076"/>
  <outline>
    <contour>
      <point x="130" y="292" type="curve"/>
      <point x="138" y="165"/>
      <point x="141" y="-11"/>
      <point x="295" y="-11" type="curve" smooth="yes"/>
      <point x="388" y="-11"/>
      <point x="513" y="181"/>
      <point x="591" y="342" type="curve"/>
      <point x="595" y="242"/>
      <point x="679" y="145"/>
      <point x="823" y="145" type="curve" smooth="yes"/>
      <point x="908" y="145"/>
      <point x="1007" y="181"/>
      <point x="1094" y="237" type="curve"/>
      <point x="1094" y="472" type="line"/>
      <point x="1094" y="472"/>
      <point x="946" y="369"/>
      <point x="866" y="369" type="curve" smooth="yes"/>
      <point x="758" y="369"/>
      <point x="731" y="434"/>
      <point x="731" y="498" type="curve" smooth="yes"/>
      <point x="731" y="559"/>
      <point x="755" y="618"/>
      <point x="755" y="618" type="curve"/>
      <point x="813" y="749"/>
      <point x="856" y="802"/>
      <point x="856" y="876" type="curve" smooth="yes"/>
      <point x="856" y="925"/>
      <point x="805" y="960"/>
      <point x="728" y="960" type="curve" smooth="yes"/>
      <point x="670" y="960"/>
      <point x="619" y="927"/>
      <point x="612" y="889" type="curve"/>
      <point x="349" y="262" type="line"/>
      <point x="335" y="261" type="line"/>
      <point x="374" y="826" type="line"/>
      <point x="374" y="909"/>
      <point x="317" y="962"/>
      <point x="247" y="962" type="curve" smooth="yes"/>
      <point x="180" y="962"/>
      <point x="112" y="909"/>
      <point x="112" y="778" type="curve" smooth="yes"/>
      <point x="112" y="672"/>
      <point x="119" y="524"/>
    </contour>
  </outline>
</glyph>
<glyph name="x" format="1">
  <advance width="1025"/>
  <unicode hex="0078"/>
  <outline>
    <contour>
      <point x="52" y="272" type="line"/>
      <point x="58" y="156"/>
      <point x="92" y="0"/>
      <point x="224" y="0" type="curve" smooth="yes"/>
      <point x="291" y="0"/>
      <point x="383" y="103"/>
      <point x="498" y="235" type="curve"/>
      <point x="594" y="70"/>
      <point x="681" y="0"/>
      <point x="736" y="0" type="curve" smooth="yes"/>
      <point x="928" y="0"/>
      <point x="1129" y="147"/>
      <point x="1216" y="234" type="curve"/>
      <point x="1216" y="319"/>
      <point x="1214" y="365"/>
      <point x="1214" y="454" type="curve"/>
      <point x="1148" y="366"/>
      <point x="934" y="223"/>
      <point x="845" y="223" type="curve" smooth="yes"/>
      <point x="800" y="223"/>
      <point x="739" y="318"/>
      <point x="680" y="436" type="curve"/>
      <point x="764" y="523"/>
      <point x="857" y="607"/>
      <point x="960" y="672" type="curve" smooth="yes"/>
      <point x="996" y="695"/>
      <point x="1013" y="738"/>
      <point x="1013" y="780" type="curve" smooth="yes"/>
      <point x="1013" y="839"/>
      <point x="980" y="895"/>
      <point x="919" y="895" type="curve" smooth="yes"/>
      <point x="895" y="895"/>
      <point x="865" y="886"/>
      <point x="832" y="864" type="curve" smooth="yes"/>
      <point x="732" y="798"/>
      <point x="650" y="725"/>
      <point x="582" y="653" type="curve"/>
      <point x="541" y="750"/>
      <point x="507" y="834"/>
      <point x="492" y="868" type="curve" smooth="yes"/>
      <point x="483" y="886"/>
      <point x="462" y="896"/>
      <point x="436" y="896" type="curve" smooth="yes"/>
      <point x="369" y="896"/>
      <point x="279" y="828"/>
      <point x="279" y="781" type="curve" smooth="yes"/>
      <point x="279" y="778"/>
      <point x="280" y="774"/>
      <point x="281" y="771" type="curve" smooth="yes"/>
      <point x="320" y="638"/>
      <point x="360" y="525"/>
      <point x="401" y="430" type="curve"/>
      <point x="327" y="325"/>
      <point x="285" y="251"/>
      <point x="256" y="251" type="curve" smooth="yes"/>
      <point x="204" y="251"/>
      <point x="196" y="295"/>
      <point x="196" y="358" type="curve" smooth="yes"/>
      <point x="196" y="390"/>
      <point x="198" y="427"/>
      <point x="198" y="466" type="curve"/>
    </contour>
  </outline>
</glyph>
<glyph name="y" format="1">
  <advance width="928"/>
  <unicode hex="0079"/>
  <outline>
    <contour>
      <point x="570" y="474" type="line"/>
      <point x="559" y="389"/>
      <point x="497" y="192"/>
      <point x="398" y="192" type="curve" smooth="yes"/>
      <point x="336" y="192"/>
      <point x="320" y="258"/>
      <point x="320" y="324" type="curve" smooth="yes"/>
      <point x="320" y="451"/>
      <point x="367" y="677"/>
      <point x="416" y="800" type="curve" smooth="yes"/>
      <point x="424" y="820"/>
      <point x="427" y="837"/>
      <point x="427" y="852" type="curve" smooth="yes"/>
      <point x="427" y="901"/>
      <point x="389" y="924"/>
      <point x="342" y="924" type="curve" smooth="yes"/>
      <point x="288" y="924"/>
      <point x="222" y="892"/>
      <point x="192" y="832" type="curve" smooth="yes"/>
      <point x="109" y="665"/>
      <point x="64" y="512"/>
      <point x="64" y="281" type="curve" smooth="yes"/>
      <point x="64" y="104"/>
      <point x="186" y="-2"/>
      <point x="315" y="-2" type="curve" smooth="yes"/>
      <point x="388" y="-2"/>
      <point x="470" y="41"/>
      <point x="541" y="105" type="curve"/>
      <point x="514" y="12" type="line"/>
      <point x="227" y="-222"/>
      <point x="-64" y="-548"/>
      <point x="-64" y="-729" type="curve" smooth="yes"/>
      <point x="-64" y="-902"/>
      <point x="69" y="-928"/>
      <point x="160" y="-928" type="curve" smooth="yes"/>
      <point x="505" y="-928"/>
      <point x="660" y="-558"/>
      <point x="736" y="-128" type="curve"/>
      <point x="736" y="-128"/>
      <point x="1077" y="79"/>
      <point x="1174" y="245" type="curve"/>
      <point x="1126" y="467" type="line"/>
      <point x="950" y="214"/>
      <point x="848" y="140"/>
      <point x="768" y="94" type="curve"/>
      <point x="768" y="94"/>
      <point x="862" y="696"/>
      <point x="896" y="832" type="curve" smooth="yes"/>
      <point x="898" y="840"/>
      <point x="899" y="847"/>
      <point x="899" y="853" type="curve" smooth="yes"/>
      <point x="899" y="891"/>
      <point x="867" y="909"/>
      <point x="826" y="909" type="curve" smooth="yes"/>
      <point x="758" y="909"/>
      <point x="662" y="859"/>
      <point x="640" y="768" type="curve" smooth="yes"/>
    </contour>
    <contour>
      <point x="172" y="-736" type="curve" smooth="yes"/>
      <point x="144" y="-736"/>
      <point x="132" y="-722"/>
      <point x="132" y="-699" type="curve" smooth="yes"/>
      <point x="132" y="-605"/>
      <point x="326" y="-359"/>
      <point x="480" y="-256" type="curve"/>
      <point x="448" y="-416"/>
      <point x="342" y="-736"/>
    </contour>
  </outline>
</glyph>
<glyph name="z" format="1">
  <advance width="693"/>
  <unicode hex="007A"/>
  <outline>
    <contour>
      <point x="-29" y="127" type="curve" smooth="yes"/>
      <point x="-29" y="59"/>
      <point x="9" y="-2"/>
      <point x="88" y="-2" type="curve" smooth="yes"/>
      <point x="119" y="-2"/>
      <point x="153" y="34"/>
      <point x="194" y="70" type="curve"/>
      <point x="336" y="10"/>
      <point x="431" y="-2"/>
      <point x="446" y="-2" type="curve" smooth="yes"/>
      <point x="644" y="-2"/>
      <point x="929" y="144"/>
      <point x="929" y="261" type="curve" smooth="yes"/>
      <point x="929" y="292"/>
      <point x="906" y="329"/>
      <point x="867" y="329" type="curve" smooth="yes"/>
      <point x="762" y="329"/>
      <point x="686" y="190"/>
      <point x="508" y="190" type="curve" smooth="yes"/>
      <point x="434" y="190"/>
      <point x="280" y="235"/>
      <point x="277" y="235" type="curve"/>
      <point x="282" y="255" type="line"/>
      <point x="322" y="302"/>
      <point x="614" y="642"/>
      <point x="665" y="729" type="curve"/>
      <point x="721" y="744"/>
      <point x="743" y="763"/>
      <point x="745" y="773" type="curve" smooth="yes"/>
      <point x="749" y="794"/>
      <point x="751" y="814"/>
      <point x="751" y="831" type="curve" smooth="yes"/>
      <point x="751" y="907"/>
      <point x="719" y="924"/>
      <point x="669" y="924" type="curve" smooth="yes"/>
      <point x="627" y="924"/>
      <point x="573" y="912"/>
      <point x="513" y="912" type="curve" smooth="yes"/>
      <point x="398" y="912"/>
      <point x="299" y="984"/>
      <point x="187" y="984" type="curve" smooth="yes"/>
      <point x="107" y="984"/>
      <point x="47" y="936"/>
      <point x="47" y="758" type="curve" smooth="yes"/>
      <point x="47" y="726"/>
      <point x="55" y="705"/>
      <point x="76" y="705" type="curve" smooth="yes"/>
      <point x="137" y="705"/>
      <point x="188" y="742"/>
      <point x="291" y="742" type="curve" smooth="yes"/>
      <point x="324" y="742"/>
      <point x="361" y="738"/>
      <point x="406" y="729" type="curve"/>
      <point x="65" y="251" type="line"/>
      <point x="16" y="198"/>
      <point x="-29" y="185"/>
    </contour>
  </outline>
</glyph>
<glyph name="braceleft" format="1">
  <advance width="1153"/>
  <unicode hex="007B"/>
  <outline>
    <contour>
      <point x="487" y="1384" type="curve"/>
      <point x="487" y="1176" type="line"/>
      <point x="460" y="1007"/>
      <point x="424" y="924"/>
      <point x="254" y="920" type="curve" smooth="yes"/>
      <point x="181" y="918"/>
      <point x="132" y="817"/>
      <point x="132" y="735" type="curve" smooth="yes"/>
      <point x="132" y="679"/>
      <point x="155" y="632"/>
      <point x="209" y="632" type="curve" smooth="yes"/>
      <point x="329" y="632"/>
      <point x="365" y="534"/>
      <point x="365" y="439" type="curve" smooth="yes"/>
      <point x="365" y="417"/>
      <point x="363" y="396"/>
      <point x="360" y="376" type="curve" smooth="yes"/>
      <point x="340" y="259"/>
      <point x="312" y="134"/>
      <point x="312" y="23" type="curve" smooth="yes"/>
      <point x="312" y="-177"/>
      <point x="407" y="-312"/>
      <point x="570" y="-312" type="curve" smooth="yes"/>
      <point x="649" y="-312"/>
      <point x="995" y="-256"/>
      <point x="1016" y="-120" type="curve" smooth="yes"/>
      <point x="1018" y="-108"/>
      <point x="1019" y="-97"/>
      <point x="1019" y="-87" type="curve" smooth="yes"/>
      <point x="1019" y="-14"/>
      <point x="972" y="18"/>
      <point x="926" y="18" type="curve" smooth="yes"/>
      <point x="843" y="18"/>
      <point x="771" y="-56"/>
      <point x="675" y="-56" type="curve" smooth="yes"/>
      <point x="614" y="-56"/>
      <point x="580" y="-25"/>
      <point x="580" y="86" type="curve" smooth="yes"/>
      <point x="580" y="180"/>
      <point x="627" y="383"/>
      <point x="627" y="534" type="curve" smooth="yes"/>
      <point x="627" y="655"/>
      <point x="596" y="754"/>
      <point x="488" y="781" type="curve"/>
      <point x="663" y="844"/>
      <point x="692" y="1057"/>
      <point x="723" y="1256" type="curve" smooth="yes"/>
      <point x="764" y="1514"/>
      <point x="815" y="1568"/>
      <point x="900" y="1568" type="curve" smooth="yes"/>
      <point x="996" y="1568"/>
      <point x="1119" y="1536"/>
      <point x="1183" y="1536" type="curve" smooth="yes"/>
      <point x="1252" y="1536"/>
      <point x="1305" y="1609"/>
      <point x="1305" y="1669" type="curve" smooth="yes"/>
      <point x="1305" y="1692"/>
      <point x="1297" y="1714"/>
      <point x="1278" y="1728" type="curve" smooth="yes"/>
      <point x="1162" y="1816"/>
      <point x="973" y="1824"/>
      <point x="877" y="1824" type="curve" smooth="yes"/>
      <point x="685" y="1824"/>
      <point x="528" y="1644"/>
    </contour>
  </outline>
</glyph>
<glyph name="bar" format="1">
  <advance width="1248"/>
  <unicode hex="007C"/>
  <outline>
    <contour>
      <point x="715" y="1696" type="curve"/>
      <point x="653" y="1344"/>
      <point x="503" y="364"/>
      <point x="477" y="197" type="curve" smooth="yes"/>
      <point x="473" y="172"/>
      <point x="472" y="149"/>
      <point x="472" y="129" type="curve" smooth="yes"/>
      <point x="472" y="42"/>
      <point x="515" y="-32"/>
      <point x="579" y="-32" type="curve" smooth="yes"/>
      <point x="630" y="-32"/>
      <point x="734" y="12"/>
      <point x="750" y="128" type="curve" smooth="yes"/>
      <point x="786" y="384"/>
      <point x="925" y="1312"/>
      <point x="975" y="1622" type="curve" smooth="yes"/>
      <point x="980" y="1652"/>
      <point x="987" y="1707"/>
      <point x="987" y="1739" type="curve" smooth="yes"/>
      <point x="987" y="1774"/>
      <point x="963" y="1856"/>
      <point x="892" y="1856" type="curve" smooth="yes"/>
      <point x="782" y="1856"/>
      <point x="724" y="1770"/>
    </contour>
  </outline>
</glyph>
<glyph name="asciitilde" format="1">
  <advance width="864"/>
  <unicode hex="007E"/>
  <outline>
    <contour>
      <point x="608" y="1568" type="line" smooth="yes"/>
      <point x="510" y="1665"/>
      <point x="474" y="1713"/>
      <point x="392" y="1713" type="curve" smooth="yes"/>
      <point x="262" y="1713"/>
      <point x="191" y="1565"/>
      <point x="160" y="1504" type="curve" smooth="yes"/>
      <point x="150" y="1484"/>
      <point x="146" y="1467"/>
      <point x="146" y="1451" type="curve" smooth="yes"/>
      <point x="146" y="1405"/>
      <point x="184" y="1378"/>
      <point x="229" y="1378" type="curve" smooth="yes"/>
      <point x="267" y="1378"/>
      <point x="310" y="1398"/>
      <point x="337" y="1441" type="curve" smooth="yes"/>
      <point x="370" y="1493"/>
      <point x="410" y="1541"/>
      <point x="410" y="1541" type="curve"/>
      <point x="512" y="1440" type="line" smooth="yes"/>
      <point x="610" y="1343"/>
      <point x="646" y="1295"/>
      <point x="728" y="1295" type="curve" smooth="yes"/>
      <point x="858" y="1295"/>
      <point x="929" y="1443"/>
      <point x="960" y="1504" type="curve" smooth="yes"/>
      <point x="970" y="1524"/>
      <point x="974" y="1541"/>
      <point x="974" y="1557" type="curve" smooth="yes"/>
      <point x="974" y="1603"/>
      <point x="936" y="1630"/>
      <point x="891" y="1630" type="curve" smooth="yes"/>
      <point x="853" y="1630"/>
      <point x="810" y="1610"/>
      <point x="783" y="1567" type="curve" smooth="yes"/>
      <point x="750" y="1515"/>
      <point x="710" y="1467"/>
      <point x="710" y="1467" type="curve"/>
    </contour>
  </outline>
</glyph>
<glyph name="currency" format="1">
  <advance width="1472"/>
  <unicode hex="00A4"/>
  <outline>
    <contour>
      <point x="666" y="452" type="curve" smooth="yes"/>
      <point x="752" y="452"/>
      <point x="830" y="471"/>
      <point x="898" y="505" type="curve"/>
      <point x="980" y="430"/>
      <point x="1065" y="347"/>
      <point x="1117" y="347" type="curve" smooth="yes"/>
      <point x="1162" y="347"/>
      <point x="1217" y="406"/>
      <point x="1217" y="451" type="curve"/>
      <point x="1216" y="478"/>
      <point x="1197" y="506"/>
      <point x="1159" y="541" type="curve" smooth="yes"/>
      <point x="1060" y="630" type="line"/>
      <point x="1178" y="761"/>
      <point x="1241" y="948"/>
      <point x="1241" y="1124" type="curve" smooth="yes"/>
      <point x="1241" y="1194"/>
      <point x="1228" y="1259"/>
      <point x="1204" y="1315" type="curve"/>
      <point x="1319" y="1394" type="line" smooth="yes"/>
      <point x="1373" y="1431"/>
      <point x="1397" y="1462"/>
      <point x="1397" y="1495" type="curve" smooth="yes"/>
      <point x="1397" y="1539"/>
      <point x="1356" y="1588"/>
      <point x="1314" y="1588" type="curve" smooth="yes"/>
      <point x="1267" y="1588"/>
      <point x="1182" y="1527"/>
      <point x="1089" y="1462" type="curve"/>
      <point x="1022" y="1512"/>
      <point x="934" y="1540"/>
      <point x="830" y="1540" type="curve" smooth="yes"/>
      <point x="723" y="1540"/>
      <point x="630" y="1515"/>
      <point x="553" y="1473" type="curve"/>
      <point x="433" y="1579" type="line" smooth="yes"/>
      <point x="399" y="1609"/>
      <point x="370" y="1623"/>
      <point x="344" y="1623" type="curve" smooth="yes"/>
      <point x="299" y="1623"/>
      <point x="243" y="1565"/>
      <point x="243" y="1521" type="curve" smooth="yes"/>
      <point x="243" y="1492"/>
      <point x="262" y="1465"/>
      <point x="302" y="1429" type="curve" smooth="yes"/>
      <point x="397" y="1343" type="line"/>
      <point x="298" y="1223"/>
      <point x="248" y="1062"/>
      <point x="248" y="901" type="curve" smooth="yes"/>
      <point x="248" y="820"/>
      <point x="264" y="745"/>
      <point x="294" y="681" type="curve"/>
      <point x="142" y="576" type="line" smooth="yes"/>
      <point x="88" y="538"/>
      <point x="64" y="507"/>
      <point x="64" y="474" type="curve" smooth="yes"/>
      <point x="64" y="430"/>
      <point x="105" y="381"/>
      <point x="146" y="381" type="curve" smooth="yes"/>
      <point x="199" y="381"/>
      <point x="313" y="465"/>
      <point x="410" y="535" type="curve"/>
      <point x="478" y="482"/>
      <point x="564" y="452"/>
    </contour>
    <contour>
      <point x="696" y="645" type="curve" smooth="yes"/>
      <point x="559" y="645"/>
      <point x="472" y="741"/>
      <point x="472" y="901" type="curve" smooth="yes"/>
      <point x="472" y="1157"/>
      <point x="600" y="1348"/>
      <point x="824" y="1348" type="curve" smooth="yes"/>
      <point x="945" y="1348"/>
      <point x="1016" y="1249"/>
      <point x="1016" y="1125" type="curve" smooth="yes"/>
      <point x="1016" y="933"/>
      <point x="923" y="645"/>
    </contour>
  </outline>
</glyph>
<glyph name="brokenbar" format="1">
  <advance width="1025"/>
  <unicode hex="00A6"/>
  <outline>
    <contour>
      <point x="575" y="1728" type="curve"/>
      <point x="546" y="1600"/>
      <point x="505" y="1292"/>
      <point x="483" y="1125" type="curve"/>
      <point x="481" y="1115"/>
      <point x="481" y="1106"/>
      <point x="481" y="1097" type="curve" smooth="yes"/>
      <point x="481" y="1006"/>
      <point x="549" y="943"/>
      <point x="615" y="943" type="curve" smooth="yes"/>
      <point x="669" y="943"/>
      <point x="722" y="985"/>
      <point x="735" y="1088" type="curve" smooth="yes"/>
      <point x="755" y="1248"/>
      <point x="791" y="1554"/>
      <point x="806" y="1622" type="curve"/>
      <point x="808" y="1638"/>
      <point x="808" y="1653"/>
      <point x="808" y="1668" type="curve" smooth="yes"/>
      <point x="808" y="1789"/>
      <point x="751" y="1854"/>
      <point x="691" y="1854" type="curve" smooth="yes"/>
      <point x="644" y="1854"/>
      <point x="596" y="1813"/>
    </contour>
    <contour>
      <point x="400" y="608" type="curve"/>
      <point x="347" y="256"/>
      <point x="337" y="236"/>
      <point x="313" y="69" type="curve" smooth="yes"/>
      <point x="309" y="44"/>
      <point x="308" y="21"/>
      <point x="308" y="1" type="curve" smooth="yes"/>
      <point x="308" y="-86"/>
      <point x="351" y="-160"/>
      <point x="415" y="-160" type="curve" smooth="yes"/>
      <point x="428" y="-160"/>
      <point x="443" y="-162"/>
      <point x="459" y="-162" type="curve" smooth="yes"/>
      <point x="503" y="-162"/>
      <point x="553" y="-150"/>
      <point x="566" y="-64" type="curve"/>
      <point x="602" y="137"/>
      <point x="606" y="224"/>
      <point x="650" y="534" type="curve" smooth="yes"/>
      <point x="652" y="552"/>
      <point x="654" y="569"/>
      <point x="654" y="585" type="curve" smooth="yes"/>
      <point x="654" y="695"/>
      <point x="594" y="749"/>
      <point x="533" y="749" type="curve" smooth="yes"/>
      <point x="474" y="749"/>
      <point x="413" y="701"/>
    </contour>
  </outline>
</glyph>
<glyph name="guillemotleft" format="1">
  <advance width="1440"/>
  <unicode hex="00AB"/>
  <outline>
    <contour>
      <point x="638" y="87" type="curve"/>
      <point x="662" y="77"/>
      <point x="683" y="73"/>
      <point x="702" y="73" type="curve" smooth="yes"/>
      <point x="771" y="73"/>
      <point x="814" y="124"/>
      <point x="814" y="158" type="curve" smooth="yes"/>
      <point x="814" y="238"/>
      <point x="722" y="285"/>
      <point x="689" y="313" type="curve" smooth="yes"/>
      <point x="420" y="544" type="line"/>
      <point x="746" y="773" type="line" smooth="yes"/>
      <point x="811" y="819"/>
      <point x="845" y="855"/>
      <point x="845" y="896" type="curve" smooth="yes"/>
      <point x="845" y="952"/>
      <point x="796" y="999"/>
      <point x="733" y="999" type="curve" smooth="yes"/>
      <point x="717" y="999"/>
      <point x="698" y="996"/>
      <point x="680" y="988" type="curve" smooth="yes"/>
      <point x="669" y="983"/>
      <point x="396" y="787"/>
      <point x="382" y="778" type="curve" smooth="yes"/>
      <point x="275" y="708"/>
      <point x="192" y="624"/>
      <point x="192" y="533" type="curve" smooth="yes"/>
      <point x="192" y="485"/>
      <point x="215" y="435"/>
      <point x="268" y="385" type="curve" smooth="yes"/>
      <point x="361" y="296"/>
      <point x="434" y="208"/>
    </contour>
    <contour>
      <point x="1214" y="87" type="curve"/>
      <point x="1238" y="77"/>
      <point x="1259" y="73"/>
      <point x="1278" y="73" type="curve" smooth="yes"/>
      <point x="1347" y="73"/>
      <point x="1390" y="124"/>
      <point x="1390" y="158" type="curve" smooth="yes"/>
      <point x="1390" y="238"/>
      <point x="1298" y="285"/>
      <point x="1265" y="313" type="curve" smooth="yes"/>
      <point x="996" y="544" type="line"/>
      <point x="1322" y="773" type="line" smooth="yes"/>
      <point x="1387" y="819"/>
      <point x="1421" y="855"/>
      <point x="1421" y="896" type="curve" smooth="yes"/>
      <point x="1421" y="952"/>
      <point x="1372" y="999"/>
      <point x="1309" y="999" type="curve" smooth="yes"/>
      <point x="1293" y="999"/>
      <point x="1274" y="996"/>
      <point x="1256" y="988" type="curve" smooth="yes"/>
      <point x="1245" y="983"/>
      <point x="972" y="787"/>
      <point x="958" y="778" type="curve" smooth="yes"/>
      <point x="851" y="708"/>
      <point x="768" y="624"/>
      <point x="768" y="533" type="curve" smooth="yes"/>
      <point x="768" y="485"/>
      <point x="791" y="435"/>
      <point x="844" y="385" type="curve" smooth="yes"/>
      <point x="937" y="296"/>
      <point x="1010" y="208"/>
    </contour>
  </outline>
</glyph>
<glyph name="logicalnot" format="1">
  <advance width="1216"/>
  <unicode hex="00AC"/>
  <outline>
    <contour>
      <point x="1035" y="685" type="line"/>
      <point x="1035" y="691" type="line" smooth="yes"/>
      <point x="1035" y="732"/>
      <point x="1006" y="768"/>
      <point x="940" y="768" type="curve" smooth="yes"/>
      <point x="309" y="768" type="line" smooth="yes"/>
      <point x="217" y="768"/>
      <point x="170" y="715"/>
      <point x="170" y="666" type="curve" smooth="yes"/>
      <point x="170" y="620"/>
      <point x="210" y="576"/>
      <point x="293" y="576" type="curve" smooth="yes"/>
      <point x="836" y="576" type="line"/>
      <point x="823" y="349" type="line" smooth="yes"/>
      <point x="823" y="344"/>
      <point x="822" y="340"/>
      <point x="822" y="336" type="curve" smooth="yes"/>
      <point x="822" y="258"/>
      <point x="865" y="220"/>
      <point x="911" y="220" type="curve" smooth="yes"/>
      <point x="959" y="220"/>
      <point x="1010" y="264"/>
      <point x="1015" y="353" type="curve" smooth="yes"/>
    </contour>
  </outline>
</glyph>
<glyph name="registered" format="1">
  <advance width="1760"/>
  <unicode hex="00AE"/>
  <outline>
    <contour>
      <point x="855" y="38" type="curve" smooth="yes"/>
      <point x="1379" y="38"/>
      <point x="1682" y="502"/>
      <point x="1682" y="921" type="curve" smooth="yes"/>
      <point x="1682" y="1245"/>
      <point x="1487" y="1557"/>
      <point x="1001" y="1557" type="curve" smooth="yes"/>
      <point x="389" y="1557"/>
      <point x="71" y="1135"/>
      <point x="71" y="736" type="curve" smooth="yes"/>
      <point x="71" y="377"/>
      <point x="328" y="38"/>
    </contour>
    <contour>
      <point x="850" y="202" type="curve" smooth="yes"/>
      <point x="440" y="202"/>
      <point x="250" y="445"/>
      <point x="250" y="712" type="curve" smooth="yes"/>
      <point x="250" y="1036"/>
      <point x="528" y="1394"/>
      <point x="1026" y="1394" type="curve" smooth="yes"/>
      <point x="1355" y="1394"/>
      <point x="1489" y="1180"/>
      <point x="1489" y="930" type="curve" smooth="yes"/>
      <point x="1489" y="596"/>
      <point x="1272" y="202"/>
    </contour>
    <contour>
      <point x="404" y="396" type="line"/>
      <point x="435" y="373"/>
      <point x="482" y="371"/>
      <point x="517" y="371" type="curve" smooth="yes"/>
      <point x="658" y="371"/>
      <point x="732" y="530"/>
      <point x="807" y="800" type="curve"/>
      <point x="837" y="800" type="line" smooth="yes"/>
      <point x="936" y="800"/>
      <point x="819" y="387"/>
      <point x="1004" y="387" type="curve" smooth="yes"/>
      <point x="1147" y="387"/>
      <point x="1296" y="516"/>
      <point x="1296" y="514" type="curve"/>
      <point x="1257" y="627" type="line"/>
      <point x="1205" y="571"/>
      <point x="1135" y="532"/>
      <point x="1093" y="532" type="curve" smooth="yes"/>
      <point x="1024" y="532"/>
      <point x="1116" y="751"/>
      <point x="978" y="809" type="curve"/>
      <point x="1177" y="819"/>
      <point x="1282" y="942"/>
      <point x="1282" y="1054" type="curve" smooth="yes"/>
      <point x="1282" y="1171"/>
      <point x="1195" y="1279"/>
      <point x="1015" y="1279" type="curve" smooth="yes"/>
      <point x="958" y="1279"/>
      <point x="833" y="1267"/>
      <point x="833" y="1267" type="curve"/>
      <point x="747" y="1267"/>
      <point x="681" y="1011"/>
      <point x="665" y="942" type="curve" smooth="yes"/>
      <point x="662" y="932" type="line"/>
      <point x="656" y="932"/>
      <point x="616" y="940"/>
      <point x="607" y="940" type="curve" smooth="yes"/>
      <point x="586" y="940"/>
      <point x="578" y="909"/>
      <point x="578" y="898" type="curve" smooth="yes"/>
      <point x="578" y="874"/>
      <point x="595" y="857"/>
      <point x="633" y="835" type="curve"/>
      <point x="621" y="777"/>
      <point x="560" y="487"/>
      <point x="468" y="487" type="curve" smooth="yes"/>
      <point x="454" y="487"/>
      <point x="436" y="491"/>
      <point x="423" y="500" type="curve"/>
    </contour>
    <contour>
      <point x="958" y="1143" type="line" smooth="yes"/>
      <point x="1058" y="1143"/>
      <point x="1103" y="1097"/>
      <point x="1103" y="1044" type="curve" smooth="yes"/>
      <point x="1103" y="986"/>
      <point x="1021" y="916"/>
      <point x="889" y="916" type="curve" smooth="yes"/>
      <point x="875" y="916"/>
      <point x="860" y="917"/>
      <point x="845" y="919" type="curve"/>
      <point x="867" y="1002"/>
      <point x="897" y="1143"/>
      <point x="897" y="1143" type="curve"/>
    </contour>
  </outline>
</glyph>
<glyph name="degree" format="1">
  <advance width="737"/>
  <unicode hex="00B0"/>
  <outline>
    <contour>
      <point x="64" y="1317" type="curve" smooth="yes"/>
      <point x="64" y="1121"/>
      <point x="213" y="1055"/>
      <point x="324" y="1055" type="curve" smooth="yes"/>
      <point x="481" y="1055"/>
      <point x="672" y="1167"/>
      <point x="672" y="1403" type="curve" smooth="yes"/>
      <point x="672" y="1558"/>
      <point x="553" y="1632"/>
      <point x="440" y="1632" type="curve" smooth="yes"/>
      <point x="283" y="1632"/>
      <point x="64" y="1523"/>
    </contour>
    <contour>
      <point x="413" y="1489" type="curve" smooth="yes"/>
      <point x="479" y="1489"/>
      <point x="509" y="1443"/>
      <point x="509" y="1388" type="curve" smooth="yes"/>
      <point x="509" y="1306"/>
      <point x="441" y="1203"/>
      <point x="324" y="1203" type="curve" smooth="yes"/>
      <point x="252" y="1203"/>
      <point x="215" y="1256"/>
      <point x="215" y="1316" type="curve" smooth="yes"/>
      <point x="215" y="1396"/>
      <point x="280" y="1489"/>
    </contour>
  </outline>
</glyph>
<glyph name="threesuperior" format="1">
  <advance width="768"/>
  <unicode hex="00B3"/>
  <outline>
    <contour>
      <point x="221" y="937" type="curve" smooth="yes"/>
      <point x="221" y="988"/>
      <point x="309" y="990"/>
      <point x="309" y="1006" type="curve" smooth="yes"/>
      <point x="309" y="1028"/>
      <point x="227" y="1055"/>
      <point x="177" y="1055" type="curve" smooth="yes"/>
      <point x="118" y="1055"/>
      <point x="66" y="1029"/>
      <point x="66" y="948" type="curve" smooth="yes"/>
      <point x="66" y="815"/>
      <point x="147" y="724"/>
      <point x="347" y="724" type="curve" smooth="yes"/>
      <point x="534" y="724"/>
      <point x="668" y="846"/>
      <point x="668" y="959" type="curve" smooth="yes"/>
      <point x="668" y="1070"/>
      <point x="606" y="1179"/>
      <point x="454" y="1212" type="curve"/>
      <point x="597" y="1252"/>
      <point x="624" y="1331"/>
      <point x="624" y="1385" type="curve" smooth="yes"/>
      <point x="624" y="1501"/>
      <point x="496" y="1567"/>
      <point x="371" y="1567" type="curve" smooth="yes"/>
      <point x="249" y="1567"/>
      <point x="132" y="1516"/>
      <point x="132" y="1405" type="curve" smooth="yes"/>
      <point x="132" y="1333"/>
      <point x="161" y="1313"/>
      <point x="186" y="1313" type="curve" smooth="yes"/>
      <point x="198" y="1313"/>
      <point x="271" y="1329"/>
      <point x="271" y="1346" type="curve" smooth="yes"/>
      <point x="271" y="1356"/>
      <point x="233" y="1378"/>
      <point x="233" y="1396" type="curve" smooth="yes"/>
      <point x="233" y="1421"/>
      <point x="263" y="1442"/>
      <point x="301" y="1442" type="curve" smooth="yes"/>
      <point x="343" y="1442"/>
      <point x="363" y="1407"/>
      <point x="363" y="1366" type="curve" smooth="yes"/>
      <point x="363" y="1315"/>
      <point x="315" y="1251"/>
      <point x="235" y="1251" type="curve" smooth="yes"/>
      <point x="195" y="1251"/>
      <point x="182" y="1205"/>
      <point x="182" y="1174" type="curve" smooth="yes"/>
      <point x="182" y="1157"/>
      <point x="195" y="1143"/>
      <point x="230" y="1141" type="curve"/>
      <point x="355" y="1128"/>
      <point x="414" y="1090"/>
      <point x="414" y="968" type="curve" smooth="yes"/>
      <point x="414" y="903"/>
      <point x="348" y="857"/>
      <point x="293" y="857" type="curve" smooth="yes"/>
      <point x="254" y="857"/>
      <point x="221" y="880"/>
    </contour>
  </outline>
</glyph>
<glyph name="acute" format="1">
  <advance width="609"/>
  <unicode hex="00B4"/>
  <outline>
    <contour>
      <point x="112" y="1203" type="curve" smooth="yes"/>
      <point x="105" y="1186"/>
      <point x="102" y="1169"/>
      <point x="102" y="1155" type="curve" smooth="yes"/>
      <point x="102" y="1115"/>
      <point x="128" y="1088"/>
      <point x="160" y="1088" type="curve" smooth="yes"/>
      <point x="182" y="1088"/>
      <point x="206" y="1099"/>
      <point x="228" y="1125" type="curve" smooth="yes"/>
      <point x="278" y="1186"/>
      <point x="432" y="1374"/>
      <point x="507" y="1477" type="curve" smooth="yes"/>
      <point x="532" y="1511"/>
      <point x="544" y="1543"/>
      <point x="544" y="1574" type="curve" smooth="yes"/>
      <point x="544" y="1653"/>
      <point x="468" y="1710"/>
      <point x="399" y="1710" type="curve" smooth="yes"/>
      <point x="360" y="1710"/>
      <point x="321" y="1691"/>
      <point x="304" y="1646" type="curve"/>
      <point x="304" y="1646"/>
      <point x="142" y="1276"/>
    </contour>
  </outline>
</glyph>
<glyph name="onehalf" format="1">
  <advance width="1729"/>
  <unicode hex="00BD"/>
  <outline>
    <contour>
      <point x="941" y="1408" type="curve" smooth="yes"/>
      <point x="805" y="1184"/>
      <point x="443" y="526"/>
      <point x="380" y="420" type="curve" smooth="yes"/>
      <point x="358" y="383"/>
      <point x="349" y="350"/>
      <point x="349" y="323" type="curve" smooth="yes"/>
      <point x="349" y="265"/>
      <point x="390" y="231"/>
      <point x="437" y="231" type="curve" smooth="yes"/>
      <point x="472" y="231"/>
      <point x="512" y="250"/>
      <point x="539" y="294" type="curve" smooth="yes"/>
      <point x="813" y="736"/>
      <point x="996" y="1089"/>
      <point x="1113" y="1288" type="curve" smooth="yes"/>
      <point x="1141" y="1335"/>
      <point x="1151" y="1375"/>
      <point x="1151" y="1402" type="curve" smooth="yes"/>
      <point x="1151" y="1452"/>
      <point x="1115" y="1472"/>
      <point x="1072" y="1472" type="curve" smooth="yes"/>
      <point x="1023" y="1472"/>
      <point x="963" y="1445"/>
    </contour>
    <component base="onesuperior" yOffset="66"/>
    <component base="twosuperior" xOffset="796" yOffset="-608"/>
  </outline>
</glyph>
<glyph name="threequarters" format="1">
  <advance width="1793"/>
  <unicode hex="00BE"/>
  <outline>
    <contour>
      <point x="991" y="1408" type="curve" smooth="yes"/>
      <point x="855" y="1184"/>
      <point x="493" y="526"/>
      <point x="430" y="420" type="curve" smooth="yes"/>
      <point x="408" y="383"/>
      <point x="399" y="350"/>
      <point x="399" y="323" type="curve" smooth="yes"/>
      <point x="399" y="265"/>
      <point x="440" y="231"/>
      <point x="487" y="231" type="curve" smooth="yes"/>
      <point x="522" y="231"/>
      <point x="562" y="250"/>
      <point x="589" y="294" type="curve" smooth="yes"/>
      <point x="863" y="736"/>
      <point x="1046" y="1089"/>
      <point x="1163" y="1288" type="curve" smooth="yes"/>
      <point x="1191" y="1335"/>
      <point x="1201" y="1375"/>
      <point x="1201" y="1402" type="curve" smooth="yes"/>
      <point x="1201" y="1452"/>
      <point x="1165" y="1472"/>
      <point x="1122" y="1472" type="curve" smooth="yes"/>
      <point x="1073" y="1472"/>
      <point x="1013" y="1445"/>
    </contour>
    <component base="threesuperior" xOffset="-31" yOffset="126"/>
    <component base="four" xOffset="799"/>
  </outline>
</glyph>
<glyph name="AE" format="1">
  <advance width="2304"/>
  <unicode hex="00C6"/>
  <outline>
    <contour>
      <point x="2499" y="477" type="line"/>
      <point x="2394" y="306"/>
      <point x="2006" y="128"/>
      <point x="1722" y="128" type="curve" smooth="yes"/>
      <point x="1565" y="128"/>
      <point x="1443" y="191"/>
      <point x="1443" y="390" type="curve" smooth="yes"/>
      <point x="1443" y="600"/>
      <point x="1504" y="768"/>
      <point x="1504" y="768" type="curve"/>
      <point x="1550" y="768"/>
      <point x="1950" y="800"/>
      <point x="1984" y="800" type="curve" smooth="yes"/>
      <point x="2066" y="800"/>
      <point x="2106" y="855"/>
      <point x="2106" y="906" type="curve" smooth="yes"/>
      <point x="2106" y="950"/>
      <point x="2076" y="992"/>
      <point x="2016" y="992" type="curve" smooth="yes"/>
      <point x="1889" y="992"/>
      <point x="1536" y="960"/>
      <point x="1536" y="960" type="curve"/>
      <point x="1536" y="1056"/>
      <point x="1620" y="1504"/>
      <point x="1925" y="1504" type="curve" smooth="yes"/>
      <point x="2106" y="1504"/>
      <point x="2341" y="1403"/>
      <point x="2432" y="1336" type="curve" smooth="yes"/>
      <point x="2438" y="1332"/>
      <point x="2444" y="1331"/>
      <point x="2451" y="1331" type="curve" smooth="yes"/>
      <point x="2494" y="1331"/>
      <point x="2536" y="1407"/>
      <point x="2536" y="1469" type="curve" smooth="yes"/>
      <point x="2536" y="1496"/>
      <point x="2528" y="1521"/>
      <point x="2507" y="1534" type="curve"/>
      <point x="2320" y="1588"/>
      <point x="2105" y="1696"/>
      <point x="1909" y="1696" type="curve" smooth="yes"/>
      <point x="1765" y="1696"/>
      <point x="1632" y="1638"/>
      <point x="1528" y="1458" type="curve"/>
      <point x="1530" y="1468"/>
      <point x="1531" y="1477"/>
      <point x="1531" y="1486" type="curve" smooth="yes"/>
      <point x="1531" y="1582"/>
      <point x="1422" y="1618"/>
      <point x="1336" y="1618" type="curve" smooth="yes"/>
      <point x="670" y="1618"/>
      <point x="128" y="976"/>
      <point x="128" y="450" type="curve" smooth="yes"/>
      <point x="128" y="109"/>
      <point x="344" y="-64"/>
      <point x="591" y="-64" type="curve" smooth="yes"/>
      <point x="795" y="-64"/>
      <point x="1067" y="136"/>
      <point x="1216" y="384" type="curve"/>
      <point x="1214" y="365"/>
      <point x="1213" y="347"/>
      <point x="1213" y="329" type="curve" smooth="yes"/>
      <point x="1213" y="46"/>
      <point x="1447" y="-96"/>
      <point x="1728" y="-96" type="curve" smooth="yes"/>
      <point x="2013" y="-96"/>
      <point x="2351" y="22"/>
      <point x="2568" y="250" type="curve"/>
    </contour>
    <contour>
      <point x="1400" y="1426" type="curve"/>
      <point x="1248" y="896" type="line"/>
      <point x="1196" y="724"/>
      <point x="945" y="160"/>
      <point x="648" y="160" type="curve" smooth="yes"/>
      <point x="489" y="160"/>
      <point x="416" y="268"/>
      <point x="416" y="456" type="curve" smooth="yes"/>
      <point x="416" y="969"/>
      <point x="983" y="1426"/>
    </contour>
  </outline>
</glyph>
<glyph name="Eth" format="1">
  <advance width="1272"/>
  <unicode hex="00D0"/>
  <outline>
    <contour>
      <point x="138" y="992" type="line" smooth="yes"/>
      <point x="35" y="992"/>
      <point x="32" y="921"/>
      <point x="32" y="890" type="curve" smooth="yes"/>
      <point x="32" y="851"/>
      <point x="46" y="800"/>
      <point x="119" y="800" type="curve" smooth="yes"/>
      <point x="174" y="800" type="line"/>
      <point x="123" y="553"/>
      <point x="96" y="298"/>
      <point x="96" y="93" type="curve" smooth="yes"/>
      <point x="96" y="48"/>
      <point x="128" y="36"/>
      <point x="162" y="24" type="curve"/>
      <point x="246" y="-18"/>
      <point x="386" y="-60"/>
      <point x="512" y="-60" type="curve" smooth="yes"/>
      <point x="1067" y="-60"/>
      <point x="1408" y="524"/>
      <point x="1408" y="1028" type="curve" smooth="yes"/>
      <point x="1408" y="1395"/>
      <point x="1227" y="1728"/>
      <point x="811" y="1728" type="curve" smooth="yes"/>
      <point x="732" y="1728"/>
      <point x="667" y="1713"/>
      <point x="667" y="1713" type="curve"/>
      <point x="470" y="1668"/>
      <point x="317" y="1358"/>
      <point x="219" y="992" type="curve"/>
    </contour>
    <contour>
      <point x="480" y="128" type="curve" smooth="yes"/>
      <point x="391" y="128"/>
      <point x="384" y="159"/>
      <point x="384" y="258" type="curve" smooth="yes"/>
      <point x="384" y="347"/>
      <point x="404" y="568"/>
      <point x="450" y="800" type="curve"/>
      <point x="694" y="800" type="line" smooth="yes"/>
      <point x="811" y="800"/>
      <point x="833" y="872"/>
      <point x="833" y="926" type="curve" smooth="yes"/>
      <point x="833" y="980"/>
      <point x="780" y="992"/>
      <point x="746" y="992" type="curve" smooth="yes"/>
      <point x="494" y="992" type="line"/>
      <point x="566" y="1264"/>
      <point x="677" y="1504"/>
      <point x="839" y="1504" type="curve" smooth="yes"/>
      <point x="1017" y="1504"/>
      <point x="1184" y="1342"/>
      <point x="1184" y="1069" type="curve" smooth="yes"/>
      <point x="1184" y="671"/>
      <point x="893" y="128"/>
    </contour>
  </outline>
</glyph>
<glyph name="multiply" format="1">
  <advance width="1280"/>
  <unicode hex="00D7"/>
  <outline>
    <contour>
      <point x="841" y="216" type="line"/>
      <point x="875" y="182"/>
      <point x="910" y="168"/>
      <point x="940" y="168" type="curve" smooth="yes"/>
      <point x="988" y="168"/>
      <point x="1024" y="204"/>
      <point x="1024" y="252" type="curve" smooth="yes"/>
      <point x="1024" y="283"/>
      <point x="1009" y="319"/>
      <point x="974" y="354" type="curve"/>
      <point x="827" y="512" type="line"/>
      <point x="980" y="675" type="line" smooth="yes"/>
      <point x="1006" y="702"/>
      <point x="1017" y="731"/>
      <point x="1017" y="761" type="curve" smooth="yes"/>
      <point x="1017" y="813"/>
      <point x="982" y="860"/>
      <point x="932" y="860" type="curve" smooth="yes"/>
      <point x="909" y="860"/>
      <point x="883" y="849"/>
      <point x="858" y="824" type="curve"/>
      <point x="691" y="638" type="line"/>
      <point x="518" y="822" type="line"/>
      <point x="492" y="847"/>
      <point x="467" y="858"/>
      <point x="444" y="858" type="curve" smooth="yes"/>
      <point x="396" y="858"/>
      <point x="359" y="812"/>
      <point x="359" y="759" type="curve" smooth="yes"/>
      <point x="359" y="730"/>
      <point x="370" y="699"/>
      <point x="396" y="673" type="curve" smooth="yes"/>
      <point x="557" y="512" type="line"/>
      <point x="402" y="356" type="line" smooth="yes"/>
      <point x="367" y="321"/>
      <point x="352" y="285"/>
      <point x="352" y="254" type="curve" smooth="yes"/>
      <point x="352" y="206"/>
      <point x="388" y="170"/>
      <point x="436" y="170" type="curve" smooth="yes"/>
      <point x="466" y="170"/>
      <point x="500" y="184"/>
      <point x="534" y="218" type="curve"/>
      <point x="691" y="386" type="line"/>
    </contour>
  </outline>
</glyph>
<glyph name="Oslash" format="1">
  <advance width="1512"/>
  <unicode hex="00D8"/>
  <outline>
    <contour>
      <point x="742" y="-192" type="curve" smooth="yes"/>
      <point x="1312" y="-192"/>
      <point x="1632" y="538"/>
      <point x="1632" y="1073" type="curve" smooth="yes"/>
      <point x="1632" y="1434"/>
      <point x="1486" y="1710"/>
      <point x="1230" y="1813" type="curve"/>
      <point x="1238" y="1837"/>
      <point x="1276" y="1973"/>
      <point x="1278" y="2014" type="curve" smooth="yes"/>
      <point x="1279" y="2024"/>
      <point x="1279" y="2034"/>
      <point x="1279" y="2044" type="curve" smooth="yes"/>
      <point x="1279" y="2083"/>
      <point x="1272" y="2110"/>
      <point x="1238" y="2110" type="curve" smooth="yes"/>
      <point x="1164" y="2110"/>
      <point x="1110" y="2031"/>
      <point x="1086" y="1945" type="curve" smooth="yes"/>
      <point x="1060" y="1853" type="line"/>
      <point x="1039" y="1855"/>
      <point x="1017" y="1856"/>
      <point x="995" y="1856" type="curve" smooth="yes"/>
      <point x="400" y="1856"/>
      <point x="96" y="1163"/>
      <point x="96" y="633" type="curve" smooth="yes"/>
      <point x="96" y="259"/>
      <point x="246" y="-30"/>
      <point x="498" y="-142" type="curve"/>
      <point x="472" y="-231"/>
      <point x="462" y="-300"/>
      <point x="462" y="-344" type="curve" smooth="yes"/>
      <point x="462" y="-435"/>
      <point x="494" y="-441"/>
      <point x="532" y="-441" type="curve" smooth="yes"/>
      <point x="563" y="-441"/>
      <point x="600" y="-426"/>
      <point x="635" y="-328" type="curve"/>
      <point x="676" y="-188" type="line"/>
      <point x="697" y="-190"/>
      <point x="719" y="-192"/>
    </contour>
    <contour>
      <point x="766" y="32" type="curve" smooth="yes"/>
      <point x="757" y="32"/>
      <point x="748" y="32"/>
      <point x="740" y="33" type="curve"/>
      <point x="906" y="615"/>
      <point x="1077" y="1243"/>
      <point x="1180" y="1626" type="curve"/>
      <point x="1311" y="1551"/>
      <point x="1376" y="1369"/>
      <point x="1376" y="1152" type="curve" smooth="yes"/>
      <point x="1376" y="783"/>
      <point x="1193" y="32"/>
    </contour>
    <contour>
      <point x="563" y="91" type="curve"/>
      <point x="429" y="181"/>
      <point x="352" y="363"/>
      <point x="352" y="583" type="curve" smooth="yes"/>
      <point x="352" y="1024"/>
      <point x="652" y="1634"/>
      <point x="1007" y="1663" type="curve"/>
      <point x="880" y="1211"/>
      <point x="674" y="485"/>
    </contour>
  </outline>
</glyph>
<glyph name="germandbls" format="1">
  <advance width="1281"/>
  <unicode hex="00DF"/>
  <outline>
    <contour>
      <point x="332" y="-39" type="curve"/>
      <point x="328" y="17"/>
      <point x="330" y="81"/>
      <point x="330" y="159" type="curve" smooth="yes"/>
      <point x="330" y="617"/>
      <point x="358" y="1404"/>
      <point x="836" y="1404" type="curve" smooth="yes"/>
      <point x="968" y="1404"/>
      <point x="1069" y="1345"/>
      <point x="1069" y="1232" type="curve" smooth="yes"/>
      <point x="1069" y="1063"/>
      <point x="914" y="961"/>
      <point x="703" y="961" type="curve" smooth="yes"/>
      <point x="608" y="961"/>
      <point x="600" y="929"/>
      <point x="600" y="844" type="curve" smooth="yes"/>
      <point x="600" y="636"/>
      <point x="1037" y="814"/>
      <point x="1037" y="489" type="curve" smooth="yes"/>
      <point x="1037" y="289"/>
      <point x="840" y="211"/>
      <point x="633" y="211" type="curve" smooth="yes"/>
      <point x="579" y="211"/>
      <point x="521" y="218"/>
      <point x="468" y="234" type="curve"/>
      <point x="442" y="52" type="line"/>
      <point x="525" y="22"/>
      <point x="610" y="3"/>
      <point x="685" y="3" type="curve" smooth="yes"/>
      <point x="1070" y="3"/>
      <point x="1261" y="245"/>
      <point x="1261" y="454" type="curve" smooth="yes"/>
      <point x="1261" y="659"/>
      <point x="1115" y="846"/>
      <point x="824" y="846" type="curve"/>
      <point x="1156" y="855"/>
      <point x="1293" y="1051"/>
      <point x="1293" y="1240" type="curve" smooth="yes"/>
      <point x="1293" y="1416"/>
      <point x="1132" y="1598"/>
      <point x="834" y="1598" type="curve" smooth="yes"/>
      <point x="174" y="1598"/>
      <point x="73" y="708"/>
      <point x="64" y="-68" type="curve"/>
      <point x="68" y="-127"/>
      <point x="128" y="-158"/>
      <point x="191" y="-158" type="curve" smooth="yes"/>
      <point x="260" y="-158"/>
      <point x="331" y="-120"/>
    </contour>
  </outline>
</glyph>
<glyph name="dotlessi" format="1">
  <advance width="537"/>
  <unicode hex="0131"/>
  <outline>
    <contour>
      <point x="736" y="416" type="line"/>
      <point x="647" y="345"/>
      <point x="498" y="192"/>
      <point x="403" y="192" type="curve" smooth="yes"/>
      <point x="362" y="192"/>
      <point x="352" y="231"/>
      <point x="352" y="290" type="curve" smooth="yes"/>
      <point x="352" y="476"/>
      <point x="486" y="813"/>
      <point x="486" y="903" type="curve" smooth="yes"/>
      <point x="486" y="938"/>
      <point x="469" y="960"/>
      <point x="414" y="960" type="curve" smooth="yes"/>
      <point x="353" y="960"/>
      <point x="251" y="932"/>
      <point x="232" y="863" type="curve"/>
      <point x="184" y="664"/>
      <point x="96" y="369"/>
      <point x="96" y="201" type="curve" smooth="yes"/>
      <point x="96" y="80"/>
      <point x="143" y="0"/>
      <point x="282" y="0" type="curve" smooth="yes"/>
      <point x="436" y="0"/>
      <point x="641" y="124"/>
      <point x="736" y="213" type="curve"/>
    </contour>
  </outline>
</glyph>
<glyph name="lslash" format="1">
  <advance width="575"/>
  <unicode hex="0142"/>
  <outline>
    <contour>
      <point x="-19" y="1222" type="curve"/>
      <point x="-84" y="1207"/>
      <point x="-99" y="1174"/>
      <point x="-99" y="1144" type="curve" smooth="yes"/>
      <point x="-99" y="1117"/>
      <point x="-82" y="1031"/>
      <point x="-5" y="1031" type="curve" smooth="yes"/>
      <point x="3" y="1031"/>
      <point x="12" y="1032"/>
      <point x="22" y="1034" type="curve" smooth="yes"/>
      <point x="252" y="1084"/>
      <point x="826" y="1206"/>
      <point x="956" y="1235" type="curve" smooth="yes"/>
      <point x="1040" y="1254"/>
      <point x="1060" y="1297"/>
      <point x="1060" y="1338" type="curve" smooth="yes"/>
      <point x="1060" y="1414"/>
      <point x="1019" y="1434"/>
      <point x="979" y="1434" type="curve" smooth="yes"/>
      <point x="967" y="1434"/>
      <point x="956" y="1432"/>
      <point x="947" y="1430" type="curve" smooth="yes"/>
      <point x="711" y="1377"/>
      <point x="82" y="1243"/>
    </contour>
    <component base="l" xOffset="22"/>
  </outline>
</glyph>
<glyph name="OE" format="1">
  <advance width="2306"/>
  <unicode hex="0152"/>
  <outline>
    <contour>
      <point x="2521" y="477" type="line"/>
      <point x="2416" y="306"/>
      <point x="2028" y="128"/>
      <point x="1744" y="128" type="curve" smooth="yes"/>
      <point x="1587" y="128"/>
      <point x="1465" y="191"/>
      <point x="1465" y="390" type="curve" smooth="yes"/>
      <point x="1465" y="448"/>
      <point x="1536" y="736"/>
      <point x="1536" y="736" type="curve"/>
      <point x="2034" y="736" type="line" smooth="yes"/>
      <point x="2123" y="736"/>
      <point x="2158" y="786"/>
      <point x="2158" y="836" type="curve" smooth="yes"/>
      <point x="2158" y="882"/>
      <point x="2127" y="928"/>
      <point x="2080" y="928" type="curve" smooth="yes"/>
      <point x="1568" y="928" type="line"/>
      <point x="1632" y="1280" type="line" smooth="yes"/>
      <point x="1666" y="1470"/>
      <point x="1822" y="1557"/>
      <point x="1998" y="1557" type="curve" smooth="yes"/>
      <point x="2149" y="1557"/>
      <point x="2314" y="1494"/>
      <point x="2432" y="1376" type="curve"/>
      <point x="2528" y="1568" type="line"/>
      <point x="2351" y="1697"/>
      <point x="2161" y="1770"/>
      <point x="1985" y="1770" type="curve" smooth="yes"/>
      <point x="1812" y="1770"/>
      <point x="1653" y="1698"/>
      <point x="1536" y="1536" type="curve"/>
      <point x="1440" y="1728"/>
      <point x="1220" y="1856"/>
      <point x="995" y="1856" type="curve" smooth="yes"/>
      <point x="400" y="1856"/>
      <point x="96" y="1163"/>
      <point x="96" y="633" type="curve" smooth="yes"/>
      <point x="96" y="151"/>
      <point x="346" y="-192"/>
      <point x="742" y="-192" type="curve" smooth="yes"/>
      <point x="960" y="-192"/>
      <point x="1184" y="-64"/>
      <point x="1280" y="96" type="curve"/>
      <point x="1376" y="-32"/>
      <point x="1555" y="-96"/>
      <point x="1750" y="-96" type="curve" smooth="yes"/>
      <point x="2035" y="-96"/>
      <point x="2373" y="22"/>
      <point x="2590" y="250" type="curve"/>
    </contour>
    <contour>
      <point x="766" y="32" type="curve" smooth="yes"/>
      <point x="508" y="32"/>
      <point x="352" y="269"/>
      <point x="352" y="583" type="curve" smooth="yes"/>
      <point x="352" y="1035"/>
      <point x="667" y="1664"/>
      <point x="1034" y="1664" type="curve" smooth="yes"/>
      <point x="1233" y="1664"/>
      <point x="1350" y="1512"/>
      <point x="1376" y="1280" type="curve"/>
      <point x="1184" y="352" type="line"/>
      <point x="1086" y="169"/>
      <point x="946" y="32"/>
    </contour>
  </outline>
</glyph>
<glyph name="oe" format="1">
  <advance width="1301"/>
  <unicode hex="0153"/>
  <outline>
    <contour>
      <point x="980" y="0" type="curve" smooth="yes"/>
      <point x="1302" y="0"/>
      <point x="1595" y="321"/>
      <point x="1595" y="321" type="curve"/>
      <point x="1466" y="455" type="line"/>
      <point x="1361" y="354"/>
      <point x="1157" y="212"/>
      <point x="996" y="212" type="curve" smooth="yes"/>
      <point x="946" y="212"/>
      <point x="910" y="230"/>
      <point x="870" y="303" type="curve"/>
      <point x="1103" y="367"/>
      <point x="1275" y="544"/>
      <point x="1275" y="709" type="curve" smooth="yes"/>
      <point x="1275" y="860"/>
      <point x="1161" y="959"/>
      <point x="1012" y="959" type="curve" smooth="yes"/>
      <point x="893" y="959"/>
      <point x="800" y="896"/>
      <point x="736" y="768" type="curve"/>
      <point x="666" y="903"/>
      <point x="574" y="958"/>
      <point x="481" y="958" type="curve" smooth="yes"/>
      <point x="276" y="958"/>
      <point x="64" y="689"/>
      <point x="64" y="437" type="curve" smooth="yes"/>
      <point x="64" y="225"/>
      <point x="160" y="0"/>
      <point x="394" y="0" type="curve" smooth="yes"/>
      <point x="511" y="0"/>
      <point x="640" y="96"/>
      <point x="704" y="224" type="curve"/>
      <point x="736" y="96"/>
      <point x="841" y="0"/>
    </contour>
    <contour>
      <point x="433" y="192" type="curve" smooth="yes"/>
      <point x="328" y="192"/>
      <point x="288" y="285"/>
      <point x="288" y="396" type="curve" smooth="yes"/>
      <point x="288" y="559"/>
      <point x="381" y="768"/>
      <point x="491" y="768" type="curve" smooth="yes"/>
      <point x="573" y="768"/>
      <point x="608" y="673"/>
      <point x="608" y="551" type="curve" smooth="yes"/>
      <point x="608" y="396"/>
      <point x="525" y="192"/>
    </contour>
    <contour>
      <point x="847" y="470" type="curve"/>
      <point x="847" y="560"/>
      <point x="863" y="768"/>
      <point x="1034" y="768" type="curve" smooth="yes"/>
      <point x="1066" y="768"/>
      <point x="1091" y="724"/>
      <point x="1091" y="665" type="curve" smooth="yes"/>
      <point x="1091" y="581"/>
      <point x="942" y="470"/>
    </contour>
  </outline>
</glyph>
<glyph name="circumflex" format="1">
  <advance width="864"/>
  <unicode hex="02C6"/>
  <outline>
    <contour>
      <point x="485" y="1532" type="curve"/>
      <point x="485" y="1532"/>
      <point x="512" y="1426"/>
      <point x="558" y="1152" type="curve" smooth="yes"/>
      <point x="575" y="1049"/>
      <point x="620" y="1020"/>
      <point x="671" y="1020" type="curve" smooth="yes"/>
      <point x="747" y="1020"/>
      <point x="786" y="1071"/>
      <point x="786" y="1133" type="curve" smooth="yes"/>
      <point x="786" y="1145"/>
      <point x="784" y="1157"/>
      <point x="781" y="1168" type="curve" smooth="yes"/>
      <point x="726" y="1347"/>
      <point x="736" y="1312"/>
      <point x="693" y="1446" type="curve"/>
      <point x="653" y="1605"/>
      <point x="618" y="1696"/>
      <point x="501" y="1696" type="curve" smooth="yes"/>
      <point x="381" y="1696"/>
      <point x="353" y="1622"/>
      <point x="280" y="1482" type="curve"/>
      <point x="116" y="1153" type="line"/>
      <point x="110" y="1139"/>
      <point x="108" y="1127"/>
      <point x="108" y="1115" type="curve" smooth="yes"/>
      <point x="108" y="1060"/>
      <point x="149" y="1024"/>
      <point x="177" y="1024" type="curve" smooth="yes"/>
      <point x="232" y="1024"/>
      <point x="290" y="1026"/>
      <point x="338" y="1152" type="curve"/>
      <point x="378" y="1248"/>
      <point x="485" y="1532"/>
    </contour>
  </outline>
</glyph>
<glyph name="hungarumlaut" format="1">
  <advance width="1024"/>
  <unicode hex="02DD"/>
  <outline>
    <contour>
      <point x="444" y="1203" type="curve" smooth="yes"/>
      <point x="436" y="1188"/>
      <point x="434" y="1172"/>
      <point x="434" y="1155" type="curve" smooth="yes"/>
      <point x="434" y="1115"/>
      <point x="460" y="1088"/>
      <point x="492" y="1088" type="curve" smooth="yes"/>
      <point x="514" y="1088"/>
      <point x="537" y="1100"/>
      <point x="560" y="1125" type="curve" smooth="yes"/>
      <point x="618" y="1188"/>
      <point x="799" y="1374"/>
      <point x="889" y="1477" type="curve"/>
      <point x="914" y="1512"/>
      <point x="926" y="1543"/>
      <point x="926" y="1574" type="curve" smooth="yes"/>
      <point x="926" y="1653"/>
      <point x="860" y="1710"/>
      <point x="801" y="1710" type="curve" smooth="yes"/>
      <point x="754" y="1710"/>
      <point x="707" y="1691"/>
      <point x="686" y="1646" type="curve"/>
      <point x="686" y="1646"/>
      <point x="480" y="1272"/>
    </contour>
    <contour>
      <point x="112" y="1203" type="curve" smooth="yes"/>
      <point x="105" y="1186"/>
      <point x="102" y="1169"/>
      <point x="102" y="1155" type="curve" smooth="yes"/>
      <point x="102" y="1115"/>
      <point x="128" y="1088"/>
      <point x="160" y="1088" type="curve" smooth="yes"/>
      <point x="182" y="1088"/>
      <point x="206" y="1099"/>
      <point x="228" y="1125" type="curve" smooth="yes"/>
      <point x="278" y="1186"/>
      <point x="432" y="1374"/>
      <point x="507" y="1477" type="curve" smooth="yes"/>
      <point x="532" y="1511"/>
      <point x="544" y="1543"/>
      <point x="544" y="1574" type="curve" smooth="yes"/>
      <point x="544" y="1653"/>
      <point x="468" y="1710"/>
      <point x="399" y="1710" type="curve" smooth="yes"/>
      <point x="360" y="1710"/>
      <point x="321" y="1691"/>
      <point x="304" y="1646" type="curve"/>
      <point x="304" y="1646"/>
      <point x="142" y="1276"/>
    </contour>
  </outline>
</glyph>
<glyph name="endash" format="1">
  <advance width="991"/>
  <unicode hex="2013"/>
  <outline>
    <contour>
      <point x="159" y="384" type="curve"/>
      <point x="803" y="384" type="line" smooth="yes"/>
      <point x="897" y="384"/>
      <point x="928" y="444"/>
      <point x="928" y="518" type="curve" smooth="yes"/>
      <point x="928" y="565"/>
      <point x="906" y="608"/>
      <point x="807" y="608" type="curve" smooth="yes"/>
      <point x="187" y="608" type="line" smooth="yes"/>
      <point x="120" y="608"/>
      <point x="65" y="594"/>
      <point x="65" y="492" type="curve" smooth="yes"/>
      <point x="65" y="415"/>
      <point x="114" y="384"/>
    </contour>
  </outline>
</glyph>
<glyph name="emdash" format="1">
  <advance width="1120"/>
  <unicode hex="2014"/>
  <outline>
    <contour>
      <point x="157" y="384" type="curve"/>
      <point x="931" y="384" type="line" smooth="yes"/>
      <point x="1025" y="384"/>
      <point x="1056" y="444"/>
      <point x="1056" y="518" type="curve" smooth="yes"/>
      <point x="1056" y="565"/>
      <point x="1034" y="608"/>
      <point x="935" y="608" type="curve" smooth="yes"/>
      <point x="185" y="608" type="line" smooth="yes"/>
      <point x="118" y="608"/>
      <point x="63" y="594"/>
      <point x="63" y="492" type="curve" smooth="yes"/>
      <point x="63" y="415"/>
      <point x="112" y="384"/>
    </contour>
  </outline>
</glyph>
<glyph name="quoteleft" format="1">
  <advance width="704"/>
  <unicode hex="2018"/>
  <outline>
    <contour>
      <point x="488" y="1757" type="curve" smooth="yes"/>
      <point x="488" y="1822"/>
      <point x="451" y="1855"/>
      <point x="408" y="1855" type="curve" smooth="yes"/>
      <point x="366" y="1855"/>
      <point x="319" y="1824"/>
      <point x="296" y="1760" type="curve" smooth="yes"/>
      <point x="262" y="1665"/>
      <point x="204" y="1471"/>
      <point x="168" y="1344" type="curve" smooth="yes"/>
      <point x="163" y="1325"/>
      <point x="160" y="1309"/>
      <point x="160" y="1293" type="curve" smooth="yes"/>
      <point x="160" y="1217"/>
      <point x="221" y="1184"/>
      <point x="288" y="1184" type="curve" smooth="yes"/>
      <point x="368" y="1184"/>
      <point x="456" y="1232"/>
      <point x="456" y="1312" type="curve" smooth="yes"/>
      <point x="456" y="1312"/>
      <point x="488" y="1661"/>
    </contour>
  </outline>
</glyph>
<glyph name="quotedblright" format="1">
  <advance width="1184"/>
  <unicode hex="201D"/>
  <outline>
    <contour>
      <point x="160" y="1283" type="curve" smooth="yes"/>
      <point x="160" y="1218"/>
      <point x="197" y="1185"/>
      <point x="240" y="1185" type="curve" smooth="yes"/>
      <point x="282" y="1185"/>
      <point x="329" y="1216"/>
      <point x="352" y="1280" type="curve" smooth="yes"/>
      <point x="386" y="1375"/>
      <point x="444" y="1569"/>
      <point x="480" y="1696" type="curve" smooth="yes"/>
      <point x="485" y="1715"/>
      <point x="488" y="1731"/>
      <point x="488" y="1747" type="curve" smooth="yes"/>
      <point x="488" y="1823"/>
      <point x="427" y="1856"/>
      <point x="360" y="1856" type="curve" smooth="yes"/>
      <point x="280" y="1856"/>
      <point x="192" y="1808"/>
      <point x="192" y="1728" type="curve" smooth="yes"/>
      <point x="192" y="1728"/>
      <point x="160" y="1379"/>
    </contour>
    <contour>
      <point x="544" y="1283" type="curve" smooth="yes"/>
      <point x="544" y="1218"/>
      <point x="581" y="1185"/>
      <point x="624" y="1185" type="curve" smooth="yes"/>
      <point x="666" y="1185"/>
      <point x="713" y="1216"/>
      <point x="736" y="1280" type="curve" smooth="yes"/>
      <point x="770" y="1375"/>
      <point x="828" y="1569"/>
      <point x="864" y="1696" type="curve" smooth="yes"/>
      <point x="869" y="1715"/>
      <point x="872" y="1731"/>
      <point x="872" y="1747" type="curve" smooth="yes"/>
      <point x="872" y="1823"/>
      <point x="811" y="1856"/>
      <point x="744" y="1856" type="curve" smooth="yes"/>
      <point x="664" y="1856"/>
      <point x="576" y="1808"/>
      <point x="576" y="1728" type="curve" smooth="yes"/>
      <point x="576" y="1728"/>
      <point x="544" y="1379"/>
    </contour>
  </outline>
</glyph>
<glyph name="dagger" format="1">
  <advance width="1152"/>
  <unicode hex="2020"/>
  <outline>
    <contour>
      <point x="939" y="1216" type="curve"/>
      <point x="694" y="1216" type="line"/>
      <point x="712" y="1303"/>
      <point x="728" y="1379"/>
      <point x="738" y="1432" type="curve" smooth="yes"/>
      <point x="742" y="1457"/>
      <point x="750" y="1493"/>
      <point x="750" y="1525" type="curve" smooth="yes"/>
      <point x="750" y="1568"/>
      <point x="737" y="1606"/>
      <point x="687" y="1606" type="curve" smooth="yes"/>
      <point x="594" y="1606"/>
      <point x="541" y="1542"/>
      <point x="530" y="1487" type="curve" smooth="yes"/>
      <point x="516" y="1419"/>
      <point x="495" y="1322"/>
      <point x="470" y="1216" type="curve"/>
      <point x="234" y="1216" type="line" smooth="yes"/>
      <point x="186" y="1216"/>
      <point x="128" y="1194"/>
      <point x="128" y="1129" type="curve" smooth="yes"/>
      <point x="128" y="1095"/>
      <point x="130" y="1055"/>
      <point x="224" y="1055" type="curve" smooth="yes"/>
      <point x="433" y="1055" type="line"/>
      <point x="369" y="786"/>
      <point x="300" y="501"/>
      <point x="285" y="424" type="curve" smooth="yes"/>
      <point x="282" y="408"/>
      <point x="280" y="389"/>
      <point x="280" y="369" type="curve" smooth="yes"/>
      <point x="280" y="313"/>
      <point x="296" y="255"/>
      <point x="352" y="255" type="curve" smooth="yes"/>
      <point x="395" y="255"/>
      <point x="479" y="257"/>
      <point x="506" y="368" type="curve" smooth="yes"/>
      <point x="534" y="481"/>
      <point x="603" y="787"/>
      <point x="660" y="1055" type="curve"/>
      <point x="920" y="1055" type="line" smooth="yes"/>
      <point x="968" y="1055"/>
      <point x="1024" y="1060"/>
      <point x="1024" y="1137" type="curve" smooth="yes"/>
      <point x="1024" y="1190"/>
      <point x="988" y="1216"/>
    </contour>
  </outline>
</glyph>
<glyph name="ellipsis" format="1">
  <advance width="1567"/>
  <unicode hex="2026"/>
  <outline>
    <contour>
      <point x="1088" y="191" type="curve" smooth="yes"/>
      <point x="1088" y="294"/>
      <point x="1029" y="353"/>
      <point x="919" y="353" type="curve" smooth="yes"/>
      <point x="790" y="353"/>
      <point x="736" y="259"/>
      <point x="736" y="162" type="curve" smooth="yes"/>
      <point x="736" y="48"/>
      <point x="802" y="0"/>
      <point x="900" y="0" type="curve" smooth="yes"/>
      <point x="1085" y="0"/>
      <point x="1088" y="174"/>
    </contour>
    <contour>
      <point x="1504" y="191" type="curve" smooth="yes"/>
      <point x="1504" y="294"/>
      <point x="1445" y="353"/>
      <point x="1335" y="353" type="curve" smooth="yes"/>
      <point x="1206" y="353"/>
      <point x="1152" y="259"/>
      <point x="1152" y="162" type="curve" smooth="yes"/>
      <point x="1152" y="48"/>
      <point x="1218" y="0"/>
      <point x="1316" y="0" type="curve" smooth="yes"/>
      <point x="1501" y="0"/>
      <point x="1504" y="174"/>
    </contour>
    <contour>
      <point x="672" y="191" type="curve" smooth="yes"/>
      <point x="672" y="294"/>
      <point x="613" y="353"/>
      <point x="503" y="353" type="curve" smooth="yes"/>
      <point x="374" y="353"/>
      <point x="320" y="259"/>
      <point x="320" y="162" type="curve" smooth="yes"/>
      <point x="320" y="48"/>
      <point x="386" y="0"/>
      <point x="484" y="0" type="curve" smooth="yes"/>
      <point x="669" y="0"/>
      <point x="672" y="174"/>
    </contour>
  </outline>
</glyph>
<glyph name="guilsinglleft" format="1">
  <advance width="1089"/>
  <unicode hex="2039"/>
  <outline>
    <contour>
      <point x="738" y="87" type="curve"/>
      <point x="762" y="77"/>
      <point x="783" y="73"/>
      <point x="802" y="73" type="curve" smooth="yes"/>
      <point x="871" y="73"/>
      <point x="914" y="124"/>
      <point x="914" y="158" type="curve" smooth="yes"/>
      <point x="914" y="238"/>
      <point x="830" y="298"/>
      <point x="789" y="313" type="curve"/>
      <point x="320" y="544" type="line"/>
      <point x="846" y="773" type="line"/>
      <point x="918" y="806"/>
      <point x="945" y="855"/>
      <point x="945" y="896" type="curve" smooth="yes"/>
      <point x="945" y="952"/>
      <point x="896" y="999"/>
      <point x="833" y="999" type="curve" smooth="yes"/>
      <point x="817" y="999"/>
      <point x="798" y="996"/>
      <point x="780" y="988" type="curve" smooth="yes"/>
      <point x="282" y="778" type="line"/>
      <point x="141" y="715"/>
      <point x="81" y="621"/>
      <point x="81" y="540" type="curve" smooth="yes"/>
      <point x="81" y="480"/>
      <point x="114" y="423"/>
      <point x="168" y="385" type="curve"/>
      <point x="311" y="294"/>
      <point x="417" y="208"/>
    </contour>
  </outline>
</glyph>
<glyph name="guilsinglright" format="1">
  <advance width="1089"/>
  <unicode hex="203A"/>
  <outline>
    <contour>
      <point x="382" y="87" type="curve" smooth="yes"/>
      <point x="576" y="171"/>
      <point x="749" y="268"/>
      <point x="896" y="352" type="curve" smooth="yes"/>
      <point x="1021" y="423"/>
      <point x="1039" y="498"/>
      <point x="1039" y="570" type="curve" smooth="yes"/>
      <point x="1039" y="643"/>
      <point x="979" y="724"/>
      <point x="838" y="778" type="curve"/>
      <point x="340" y="988" type="line" smooth="yes"/>
      <point x="322" y="996"/>
      <point x="303" y="999"/>
      <point x="287" y="999" type="curve" smooth="yes"/>
      <point x="224" y="999"/>
      <point x="175" y="952"/>
      <point x="175" y="896" type="curve" smooth="yes"/>
      <point x="175" y="855"/>
      <point x="202" y="806"/>
      <point x="274" y="773" type="curve"/>
      <point x="800" y="544" type="line"/>
      <point x="331" y="313" type="line"/>
      <point x="290" y="298"/>
      <point x="206" y="238"/>
      <point x="206" y="158" type="curve" smooth="yes"/>
      <point x="206" y="124"/>
      <point x="249" y="73"/>
      <point x="318" y="73" type="curve" smooth="yes"/>
      <point x="337" y="73"/>
      <point x="358" y="77"/>
    </contour>
  </outline>
</glyph>
<glyph name="Euro" format="1">
  <advance width="1857"/>
  <unicode hex="20AC"/>
  <outline>
    <contour>
      <point x="801" y="704" type="curve"/>
      <point x="413" y="704" type="line"/>
      <point x="422" y="746"/>
      <point x="434" y="788"/>
      <point x="448" y="832" type="curve"/>
      <point x="833" y="832" type="line" smooth="yes"/>
      <point x="945" y="832"/>
      <point x="961" y="896"/>
      <point x="961" y="948" type="curve" smooth="yes"/>
      <point x="961" y="1011"/>
      <point x="902" y="1024"/>
      <point x="866" y="1024" type="curve" smooth="yes"/>
      <point x="521" y="1024" type="line"/>
      <point x="650" y="1312"/>
      <point x="857" y="1568"/>
      <point x="1088" y="1568" type="curve" smooth="yes"/>
      <point x="1281" y="1568"/>
      <point x="1333" y="1487"/>
      <point x="1333" y="1390" type="curve" smooth="yes"/>
      <point x="1333" y="1294"/>
      <point x="1283" y="1181"/>
      <point x="1270" y="1114" type="curve" smooth="yes"/>
      <point x="1269" y="1110"/>
      <point x="1269" y="1105"/>
      <point x="1269" y="1102" type="curve" smooth="yes"/>
      <point x="1269" y="1048"/>
      <point x="1374" y="1026"/>
      <point x="1412" y="1026" type="curve" smooth="yes"/>
      <point x="1473" y="1026"/>
      <point x="1572" y="1215"/>
      <point x="1572" y="1405" type="curve" smooth="yes"/>
      <point x="1572" y="1598"/>
      <point x="1470" y="1792"/>
      <point x="1123" y="1792" type="curve" smooth="yes"/>
      <point x="722" y="1792"/>
      <point x="394" y="1418"/>
      <point x="223" y="1024" type="curve"/>
      <point x="97" y="1024" type="line" smooth="yes"/>
      <point x="11" y="1024"/>
      <point x="0" y="975"/>
      <point x="0" y="941" type="curve" smooth="yes"/>
      <point x="0" y="901"/>
      <point x="12" y="832"/>
      <point x="97" y="832" type="curve" smooth="yes"/>
      <point x="153" y="832" type="line"/>
      <point x="140" y="788"/>
      <point x="129" y="746"/>
      <point x="121" y="704" type="curve"/>
      <point x="32" y="704" type="line" smooth="yes"/>
      <point x="-54" y="704"/>
      <point x="-65" y="655"/>
      <point x="-65" y="621" type="curve" smooth="yes"/>
      <point x="-65" y="581"/>
      <point x="-53" y="512"/>
      <point x="32" y="512" type="curve" smooth="yes"/>
      <point x="97" y="512" type="line"/>
      <point x="96" y="502"/>
      <point x="96" y="492"/>
      <point x="96" y="482" type="curve" smooth="yes"/>
      <point x="96" y="-13"/>
      <point x="390" y="-192"/>
      <point x="700" y="-192" type="curve" smooth="yes"/>
      <point x="977" y="-192"/>
      <point x="1261" y="-40"/>
      <point x="1455" y="131" type="curve"/>
      <point x="1490" y="159"/>
      <point x="1504" y="192"/>
      <point x="1504" y="221" type="curve" smooth="yes"/>
      <point x="1504" y="275"/>
      <point x="1457" y="321"/>
      <point x="1405" y="321" type="curve" smooth="yes"/>
      <point x="1388" y="321"/>
      <point x="1370" y="316"/>
      <point x="1353" y="305" type="curve"/>
      <point x="1192" y="169"/>
      <point x="953" y="62"/>
      <point x="752" y="62" type="curve" smooth="yes"/>
      <point x="548" y="62"/>
      <point x="384" y="172"/>
      <point x="384" y="472" type="curve" smooth="yes"/>
      <point x="384" y="485"/>
      <point x="384" y="498"/>
      <point x="385" y="512" type="curve"/>
      <point x="768" y="512" type="line" smooth="yes"/>
      <point x="880" y="512"/>
      <point x="896" y="576"/>
      <point x="896" y="628" type="curve" smooth="yes"/>
      <point x="896" y="691"/>
      <point x="837" y="704"/>
    </contour>
  </outline>
</glyph>
